<svg xmlns="http://www.w3.org/2000/svg" xmlns:xlink="http://www.w3.org/1999/xlink" width="500" height="346.543212890625" viewBox="0 0 500 346.543212890625" fill="none">
<g  clip-path="url(#clip-path-11_214)" opacity="0.6">
<g  opacity="0.5">
<path d="M206.37 124.584L198.54 124.584L198.54 124.799L191.151 124.799L191.151 124.584L183.326 124.584L183.326 124.799L175.937 124.799L175.937 124.584L168.113 124.584L168.113 124.799L157.463 124.799L157.463 160.884L157.023 160.884L146.807 160.884L146.807 160.67L138.983 160.67L138.983 160.884L131.593 160.884L131.593 160.67L123.769 160.67L123.769 160.884L116.379 160.884L116.379 160.67L108.555 160.67L108.555 160.884L97.8999 160.884L97.8999 196.969L157.023 196.969L157.463 196.969L216.585 196.969L216.585 160.884L217.02 160.884L217.02 196.969L276.577 196.969L336.134 196.969L336.134 160.884L336.134 124.799L325.484 124.799L325.484 124.584L317.66 124.584L317.66 124.799L310.27 124.799L310.27 124.584L302.446 124.584L302.446 124.799L295.051 124.799L295.051 124.584L287.227 124.584L287.227 124.799L276.577 124.799L265.927 124.799L265.927 124.584L258.103 124.584L258.103 124.799L250.708 124.799L250.708 124.584L242.884 124.584L242.884 124.799L235.494 124.799L235.494 124.584L227.67 124.584L227.67 124.799L217.02 124.799L206.37 124.799L206.37 124.584Z"   fill="url(#linear_fill_11_216)" >
</path>
</g>
<path d="M158.422 160.884L217.02 160.884L217.02 125.383L158.422 125.383L158.422 160.884Z"   fill="#F55F44" >
</path>
<path d="M217.02 160.884L275.617 160.884L275.617 125.383L217.02 125.383L217.02 160.884Z"   fill="#4D8AF0" >
</path>
<path d="M275.617 160.884L334.215 160.884L334.215 125.383L275.617 125.383L275.617 160.884Z"   fill="#3AD29F" >
</path>
<path d="M157.994 196.384L216.591 196.384L216.591 160.884L157.994 160.884L157.994 196.384Z"   fill="#4D8AF0" >
</path>
<path d="M99.8252 196.384L158.423 196.384L158.423 160.884L99.8252 160.884L99.8252 196.384Z"   fill="#F55F44" >
</path>
<path d="M217.02 196.384L275.617 196.384L275.617 160.884L217.02 160.884L217.02 196.384Z"   fill="#3AD29F" >
</path>
<path d="M275.617 196.384L334.215 196.384L334.215 160.884L275.617 160.884L275.617 196.384Z"   fill="#FDD835" >
</path>
<g  opacity="0.1">
<path d="M168.901 160.669L176.602 160.669L176.602 125.169L168.901 125.169L168.901 160.669Z"   fill="#000000" >
</path>
<path d="M183.874 160.669L191.574 160.669L191.574 125.169L183.874 125.169L183.874 160.669Z"   fill="#000000" >
</path>
<path d="M198.84 160.669L206.541 160.669L206.541 125.169L198.84 125.169L198.84 160.669Z"   fill="#000000" >
</path>
</g>
<g  opacity="0.1">
<path d="M227.499 160.669L235.199 160.669L235.199 125.169L227.499 125.169L227.499 160.669Z"   fill="#000000" >
</path>
<path d="M242.466 160.669L250.167 160.669L250.167 125.169L242.466 125.169L242.466 160.669Z"   fill="#000000" >
</path>
<path d="M257.438 160.669L265.139 160.669L265.139 125.169L257.438 125.169L257.438 160.669Z"   fill="#000000" >
</path>
</g>
<g  opacity="0.1">
<path d="M286.096 160.669L293.796 160.669L293.796 125.169L286.096 125.169L286.096 160.669Z"   fill="#000000" >
</path>
<path d="M301.063 160.669L308.764 160.669L308.764 125.169L301.063 125.169L301.063 160.669Z"   fill="#000000" >
</path>
<path d="M316.035 160.669L323.736 160.669L323.736 125.169L316.035 125.169L316.035 160.669Z"   fill="#000000" >
</path>
</g>
<g  opacity="0.1">
<path d="M168.901 196.17L176.602 196.17L176.602 160.669L168.901 160.669L168.901 196.17Z"   fill="#000000" >
</path>
<path d="M183.874 196.17L191.574 196.17L191.574 160.669L183.874 160.669L183.874 196.17Z"   fill="#000000" >
</path>
<path d="M198.84 196.17L206.541 196.17L206.541 160.669L198.84 160.669L198.84 196.17Z"   fill="#000000" >
</path>
</g>
<g  opacity="0.1">
<path d="M110.304 196.17L118.004 196.17L118.004 160.669L110.304 160.669L110.304 196.17Z"   fill="#000000" >
</path>
<path d="M125.276 196.17L132.977 196.17L132.977 160.669L125.276 160.669L125.276 196.17Z"   fill="#000000" >
</path>
<path d="M140.243 196.17L147.944 196.17L147.944 160.669L140.243 160.669L140.243 196.17Z"   fill="#000000" >
</path>
</g>
<g  opacity="0.1">
<path d="M227.499 196.17L235.199 196.17L235.199 160.669L227.499 160.669L227.499 196.17Z"   fill="#000000" >
</path>
<path d="M242.466 196.17L250.167 196.17L250.167 160.669L242.466 160.669L242.466 196.17Z"   fill="#000000" >
</path>
<path d="M257.438 196.17L265.139 196.17L265.139 160.669L257.438 160.669L257.438 196.17Z"   fill="#000000" >
</path>
</g>
<g  opacity="0.1">
<path d="M286.096 196.17L293.796 196.17L293.796 160.669L286.096 160.669L286.096 196.17Z"   fill="#000000" >
</path>
<path d="M301.063 196.17L308.764 196.17L308.764 160.669L301.063 160.669L301.063 196.17Z"   fill="#000000" >
</path>
<path d="M316.035 196.17L323.736 196.17L323.736 160.669L316.035 160.669L316.035 196.17Z"   fill="#000000" >
</path>
</g>
<g  opacity="0.5">
<path d="M36.7931 174.344C36.7931 174.344 25.8426 223.267 81.8927 256.929L81.8927 268.002L437.434 268.002L437.434 258.795C437.434 258.795 468.961 250.488 453.195 192.352L193.548 193.735L160.267 174.344L36.7931 174.344Z"   fill="url(#linear_fill_11_253)" >
</path>
</g>
<path d="M41.6567 178.42C41.6567 178.42 30.9637 223.756 85.7107 254.982L85.7107 265.246L433.015 265.246L433.015 256.666C433.015 256.666 463.808 248.992 448.417 195.098L194.765 196.385L162.273 178.42L41.6567 178.42Z" stroke="rgba(108, 99, 255, 1.00)" stroke-width="0.54"      fill="#6C63FF" >
</path>
<g  opacity="0.5">
<path     fill="url(#linear_fill_11_256_0)"  d="M379.336 217.117C379.336 220.034 381.7 222.399 384.617 222.399L406.987 222.399C409.903 222.399 412.268 220.034 412.268 217.117L412.268 216.703C412.268 213.786 409.903 211.421 406.987 211.421L384.617 211.421C381.7 211.421 379.336 213.786 379.336 216.703L379.336 217.117Z">
</path>
</g>
<path     fill="#FFFFFF"  d="M380.403 217.104C380.403 219.833 382.615 222.045 385.344 222.045L406.259 222.045C408.988 222.045 411.2 219.833 411.2 217.104L411.2 216.722C411.2 213.993 408.988 211.781 406.259 211.781L385.344 211.781C382.615 211.781 380.403 213.993 380.403 216.722L380.403 217.104Z">
</path>
<g  opacity="0.5">
<path     fill="url(#linear_fill_11_259_0)"  d="M416.118 217.126C416.118 220.195 418.605 222.683 421.674 222.683L422.107 222.683C425.176 222.683 427.663 220.195 427.663 217.126L427.663 216.694C427.663 213.625 425.176 211.137 422.107 211.137L421.674 211.137C418.605 211.137 416.118 213.625 416.118 216.694L416.118 217.126Z">
</path>
</g>
<path     fill="#FFFFFF"  d="M416.761 217.104C416.761 219.833 418.973 222.045 421.702 222.045L422.084 222.045C424.813 222.045 427.025 219.833 427.025 217.104L427.025 216.722C427.025 213.993 424.813 211.781 422.084 211.781L421.702 211.781C418.973 211.781 416.761 213.993 416.761 216.722L416.761 217.104Z">
</path>
<g  opacity="0.5">
<path d="M416.627 140.013L416.627 86.944L377.636 86.944L377.636 54.4948L383.98 54.4948L383.98 47.4752L377.636 47.4752L377.636 41.335L370.38 41.335L370.38 47.4752L364.486 47.4752L364.486 54.4948L370.38 54.4948L370.38 86.944L358.593 86.944L358.593 106.244L358.593 122.032L358.593 140.013L358.593 150.539L347.256 150.539L347.256 158.433L358.593 158.433L358.593 159.967L358.593 197.023L444.288 197.023L444.288 159.967L444.288 158.433L452.9 158.433L452.9 150.539L444.288 150.539L444.288 140.013L416.627 140.013Z"   fill="url(#linear_fill_11_262)" >
</path>
</g>
<path d="M360.304 195.098L441.14 195.098L441.14 139.498L360.304 139.498L360.304 195.098Z"   fill="#F5F5F5" >
</path>
<path d="M360.304 139.498L415.051 139.498L415.051 87.7432L360.304 87.7432L360.304 139.498Z"   fill="#F5F5F5" >
</path>
<path d="M385.964 139.498L404.781 139.498L404.781 110.411L385.964 110.411L385.964 139.498Z" stroke="rgba(108, 99, 255, 1.00)" stroke-width="0.54"      fill="#6C63FF" >
</path>
<path d="M360.304 121.957L371.426 121.957L371.426 106.561L360.304 106.561L360.304 121.957Z"   fill="#FFFFFF" >
</path>
<path d="M371.42 87.7432L378.263 87.7432L378.263 43.2603L371.42 43.2603L371.42 87.7432Z"   fill="#E0E0E0" >
</path>
<path d="M365.859 56.0932L384.253 56.0932L384.253 49.2505L365.859 49.2505L365.859 56.0932Z"   fill="#E0E0E0" >
</path>
<path d="M349.611 157.462L449.264 157.462L449.264 149.762L349.611 149.762L349.611 157.462Z"   fill="#E0E0E0" >
</path>
<path d="M378.263 166.869C376.136 166.869 374.413 168.593 374.413 170.719C374.413 172.846 376.136 174.569 378.263 174.569C380.389 174.569 382.113 172.846 382.113 170.719C382.113 168.593 380.389 166.869 378.263 166.869Z"   fill="#FFFFFF" >
</path>
<path d="M391.954 166.869C389.827 166.869 388.104 168.593 388.104 170.719C388.104 172.846 389.827 174.569 391.954 174.569C394.08 174.569 395.804 172.846 395.804 170.719C395.804 168.593 394.08 166.869 391.954 166.869Z"   fill="#FFFFFF" >
</path>
<path d="M405.639 166.869C403.513 166.869 401.789 168.593 401.789 170.719C401.789 172.846 403.513 174.569 405.639 174.569C407.766 174.569 409.49 172.846 409.49 170.719C409.49 168.593 407.766 166.869 405.639 166.869Z"   fill="#FFFFFF" >
</path>
<path d="M419.325 166.869C417.198 166.869 415.475 168.593 415.475 170.719C415.475 172.846 417.198 174.569 419.325 174.569C421.451 174.569 423.175 172.846 423.175 170.719C423.175 168.593 421.451 166.869 419.325 166.869Z"   fill="#FFFFFF" >
</path>
<g opacity="0.1">
<path d="M85.4961 265.455L432.795 265.455L432.795 255.191L85.4961 255.191L85.4961 265.455Z"   fill="#000000" >
</path>
</g>
<g opacity="0.1">
<path d="M162.273 180.345L194.765 198.304L448.417 197.023C451.34 207.249 452.594 215.792 452.707 222.967C452.82 215.389 451.634 206.15 448.417 194.883L194.765 196.17L162.257 178.205L41.6568 178.205C40.9853 181.661 40.7065 185.181 40.8256 188.7C40.8329 185.894 41.1112 183.096 41.6568 180.345L162.273 180.345Z"   fill="#000000" >
</path>
</g>
<g opacity="0.05">
<path d="M360.304 158.959L441.14 158.959L441.14 157.462L360.304 157.462L360.304 158.959Z"   fill="#000000" >
</path>
</g>
<g  opacity="0.5">
<path d="M62.3995 186.335C58.8573 186.335 55.9858 189.206 55.9858 192.749C55.9858 196.291 58.8573 199.162 62.3995 199.162C65.9417 199.162 68.8132 196.291 68.8132 192.749C68.8132 189.206 65.9417 186.335 62.3995 186.335Z"   fill="url(#linear_fill_11_278)" >
</path>
</g>
<g  opacity="0.5">
<path d="M90.6281 186.335C87.0859 186.335 84.2144 189.206 84.2144 192.749C84.2144 196.291 87.0859 199.162 90.6281 199.162C94.1702 199.162 97.0417 196.291 97.0417 192.749C97.0417 189.206 94.1702 186.335 90.6281 186.335Z"   fill="url(#linear_fill_11_280)" >
</path>
</g>
<g  opacity="0.5">
<path d="M118.857 186.335C115.315 186.335 112.443 189.206 112.443 192.749C112.443 196.291 115.315 199.162 118.857 199.162C122.399 199.162 125.271 196.291 125.271 192.749C125.271 189.206 122.399 186.335 118.857 186.335Z"   fill="url(#linear_fill_11_282)" >
</path>
</g>
<g  opacity="0.5">
<path d="M147.086 186.335C143.544 186.335 140.672 189.206 140.672 192.749C140.672 196.291 143.544 199.162 147.086 199.162C150.628 199.162 153.5 196.291 153.5 192.749C153.5 189.206 150.628 186.335 147.086 186.335Z"   fill="url(#linear_fill_11_284)" >
</path>
</g>
<path d="M62.3996 187.617C59.5653 187.617 57.2676 189.914 57.2676 192.749C57.2676 195.583 59.5653 197.881 62.3996 197.881C65.2339 197.881 67.5316 195.583 67.5316 192.749C67.5316 189.914 65.2339 187.617 62.3996 187.617Z"   fill="#FFFFFF" >
</path>
<path d="M90.6281 187.617C87.7938 187.617 85.4961 189.914 85.4961 192.749C85.4961 195.583 87.7938 197.881 90.6281 197.881C93.4625 197.881 95.7601 195.583 95.7601 192.749C95.7601 189.914 93.4625 187.617 90.6281 187.617Z"   fill="#FFFFFF" >
</path>
<path d="M118.857 187.617C116.023 187.617 113.725 189.914 113.725 192.749C113.725 195.583 116.023 197.881 118.857 197.881C121.691 197.881 123.989 195.583 123.989 192.749C123.989 189.914 121.691 187.617 118.857 187.617Z"   fill="#FFFFFF" >
</path>
<path d="M147.086 187.617C144.252 187.617 141.954 189.914 141.954 192.749C141.954 195.583 144.252 197.881 147.086 197.881C149.92 197.881 152.218 195.583 152.218 192.749C152.218 189.914 149.92 187.617 147.086 187.617Z"   fill="#FFFFFF" >
</path>
<path d="M79.2756 250.461C67.8049 250.011 55.2671 255.615 51.2773 266.383L124.699 267.248C120.286 265.43 115.97 263.295 111.714 261.186C101.434 256.092 90.7462 250.912 79.2756 250.461ZM144.115 272.089C152.15 272.483 159.783 270.596 167.265 267.749L124.699 267.248C130.945 269.821 137.384 271.759 144.115 272.089ZM319.403 269.348C319.252 269.413 319.101 269.475 318.949 269.537L435.157 270.906C423.269 268.687 411.426 264.898 399.81 261.589C377.276 255.17 351.815 250.794 331.437 262.377C327.399 264.656 323.693 267.53 319.403 269.348ZM435.157 270.906C446.33 272.992 457.542 273.691 468.639 271.3L435.157 270.906ZM287.124 269.162C292.566 270.654 298.086 271.659 303.728 271.847C308.895 272.019 314.162 271.47 318.949 269.537L287.124 269.162ZM216.435 249.18C199.049 250.865 183.513 261.569 167.265 267.749L287.124 269.162C263.323 262.637 241.004 246.796 216.435 249.18Z" fill-rule="evenodd"  fill="#4D8AF0" >
</path>
<path d="M115.984 288.515L235.858 289.929C212.053 283.406 189.73 267.56 165.158 269.944C147.77 271.629 132.234 282.334 115.984 288.515ZM252.451 292.612C257.614 292.783 262.878 292.235 267.663 290.304L235.858 289.929C241.297 291.419 246.813 292.423 252.451 292.612ZM268.126 290.113C267.972 290.178 267.818 290.242 267.663 290.304L383.891 291.675C372 289.455 360.152 285.663 348.533 282.353C325.999 275.934 300.537 271.558 280.159 283.141C276.121 285.42 272.416 288.295 268.126 290.113ZM115.984 288.515L73.4238 288.013C79.6692 290.586 86.1071 292.523 92.8377 292.853C100.871 293.247 108.503 291.36 115.984 288.515ZM27.9982 271.225C16.5276 270.775 3.98979 276.379 0 287.147L73.4238 288.013C69.0105 286.195 64.6933 284.06 60.4367 281.951C50.1566 276.856 39.4689 271.676 27.9982 271.225ZM383.891 291.675C395.061 293.761 406.269 294.459 417.362 292.07L383.891 291.675Z" fill-rule="evenodd"  fill="#4D8AF0" >
</path>
<path d="M170.642 315.213L128.095 314.71C134.339 317.282 140.775 319.218 147.504 319.548C155.535 319.942 163.164 318.057 170.642 315.213ZM290.503 316.63C266.708 310.104 244.379 294.265 219.824 296.639C202.434 298.325 186.895 309.033 170.642 315.213L290.503 316.63ZM322.792 316.818C322.642 316.882 322.49 316.945 322.339 317.006L438.553 318.38C426.663 316.16 414.817 312.368 403.199 309.059C380.666 302.64 355.204 298.264 334.826 309.847C330.788 312.126 327.082 315 322.792 316.818ZM82.6647 297.92C71.1941 297.47 58.6563 303.074 54.6665 313.842L128.095 314.71C123.68 312.892 119.361 310.756 115.103 308.646C104.823 303.551 94.1354 298.371 82.6647 297.92ZM438.553 318.38C449.724 320.466 460.934 321.166 472.029 318.776L438.553 318.38ZM290.503 316.63C295.949 318.124 301.473 319.129 307.117 319.317C312.284 319.489 317.552 318.94 322.339 317.006L290.503 316.63Z" fill-rule="evenodd"  fill="#4D8AF0" >
</path>
<path d="M466.53 344.647C477.699 346.732 488.907 347.431 500 345.042L466.53 344.647ZM431.171 335.324C408.637 328.905 383.176 324.53 362.798 336.113C358.76 338.392 355.054 341.266 350.764 343.084C350.61 343.15 350.456 343.213 350.301 343.276L466.53 344.647C454.638 342.426 442.791 338.635 431.171 335.324ZM318.496 342.901C323.935 344.391 329.451 345.395 335.089 345.583C340.252 345.755 345.517 345.206 350.301 343.276L318.496 342.901ZM247.796 322.915C230.409 324.601 214.872 335.306 198.622 341.487L318.496 342.901C294.691 336.378 272.368 320.532 247.796 322.915ZM156.062 340.985C162.307 343.557 168.745 345.495 175.476 345.825C183.509 346.218 191.141 344.332 198.622 341.487L156.062 340.985ZM143.075 334.922C132.795 329.828 122.107 324.648 110.636 324.197C99.1658 323.747 86.628 329.351 82.6382 340.119L156.062 340.985C151.649 339.167 147.331 337.032 143.075 334.922Z" fill-rule="evenodd"  fill="#4D8AF0" >
</path>
<g  opacity="0.5">
<path d="M126.15 35.7148L125.164 39.3453C132.891 41.4475 138.388 49.7917 137.76 57.7177C137.56 58.6146 137.411 59.5224 137.315 60.4365L141.01 61.0908C141.239 60.1798 141.401 59.2531 141.493 58.3183C143.418 50.2904 150.304 43.378 158.401 41.7692L157.656 38.0798C150.523 39.6205 144.364 44.0859 140.683 50.387C138.618 43.5228 133.191 37.6293 126.15 35.7148Z"   fill="url(#linear_fill_11_294)" >
</path>
</g>
<path d="M140.86 50.1242C139.101 44.2629 134.457 39.2274 128.44 37.5864L127.593 40.6914C134.2 42.4879 138.897 49.6201 138.361 56.3931C138.189 57.1592 138.062 57.9345 137.98 58.7151L141.139 59.2514C141.32 58.4715 141.444 57.6793 141.509 56.8811C143.177 50.017 149.065 44.1288 155.988 42.7345L155.35 39.5813C149.255 40.9081 143.998 44.7334 140.86 50.1242Z"   fill="#706A6A" >
</path>
<g  opacity="0.5">
<path d="M217.728 26.6682L220.114 27.0918C220.264 26.5034 220.37 25.9047 220.431 25.3007C221.685 20.1258 226.115 15.7016 231.338 14.6291L230.856 12.2481C226.254 13.241 222.281 16.1207 219.905 20.1848C218.575 15.7552 215.073 11.9585 210.531 10.7197L209.893 13.0632C214.875 14.4199 218.42 19.804 218.017 24.9146C217.887 25.493 217.791 26.0785 217.728 26.6682Z"   fill="url(#linear_fill_11_297)" >
</path>
</g>
<g  opacity="0.5">
<path d="M363.344 14.1895C363.214 14.7679 363.117 15.3534 363.055 15.9431L365.441 16.3667C365.591 15.7783 365.696 15.1796 365.757 14.5756C367.012 9.40067 371.442 4.9765 376.665 3.90398L376.182 1.52298C371.581 2.5159 367.607 5.39556 365.232 9.45965C363.902 5.03013 360.4 1.23339 355.858 -0.00537109L355.22 2.33809C360.202 3.69484 363.746 9.07891 363.344 14.1895Z"   fill="url(#linear_fill_11_299)" >
</path>
</g>
<path d="M220.152 19.7452C219.299 16.7928 217.004 14.4759 214.06 13.5942L213.647 15.1172C216.886 16.0021 219.192 19.4931 218.929 22.8179C218.845 23.193 218.782 23.5726 218.741 23.9548L220.291 24.2283C220.391 23.8463 220.463 23.4573 220.506 23.0646C221.376 19.6095 224.107 16.9322 227.579 16.1308L227.268 14.5863C224.277 15.2318 221.695 17.1036 220.152 19.7452Z"   fill="#706A6A" >
</path>
<path d="M364.256 12.0928C364.171 12.4679 364.109 12.8475 364.068 13.2297L365.618 13.5032C365.718 13.1212 365.79 12.7322 365.832 12.3395C366.703 8.88438 369.434 6.2071 372.906 5.40566L372.595 3.86123C369.604 4.50673 367.022 6.37854 365.478 9.02007C364.625 6.06766 362.331 3.75085 359.387 2.86914L358.974 4.39212C362.213 5.27696 364.519 8.76802 364.256 12.0928Z"   fill="#706A6A" >
</path>
<g  opacity="0.5">
<path d="M74.2079 5.19092C54.3645 5.19092 38.2783 21.2771 38.2783 41.1205C38.2783 60.9638 54.3645 77.05 74.2079 77.05C94.0512 77.05 110.137 60.9638 110.137 41.1205C110.137 21.2771 94.0512 5.19092 74.2079 5.19092Z"   fill="url(#linear_fill_11_303)" >
</path>
</g>
<path d="M74.2077 7.87256C55.8452 7.87256 40.9595 22.7583 40.9595 41.1208C40.9595 59.4833 55.8452 74.369 74.2077 74.369C92.5702 74.369 107.456 59.4833 107.456 41.1208C107.456 22.7583 92.5702 7.87256 74.2077 7.87256Z"   fill="#FDD835" >
</path>
</g>
<defs>
<clipPath id="clip-path-11_214">
<path d="M0 346.543L500 346.543L500 0L0 0L0 346.543Z" fill="white"/>
</clipPath>
<linearGradient id="linear_fill_11_216" x1="96508.984375" y1="26711.466796875" x2="96508.984375" y2="16940.986328125" gradientUnits="userSpaceOnUse">
<stop offset="0" stop-color="#808080" stop-opacity="0.25" />
<stop offset="0.54" stop-color="#808080" stop-opacity="0.12" />
<stop offset="1" stop-color="#808080" stop-opacity="0.1" />
</linearGradient>
<linearGradient id="linear_fill_11_253" x1="250502.125" y1="58868.98046875" x2="250502.125" y2="42509.70703125" gradientUnits="userSpaceOnUse">
<stop offset="0" stop-color="#808080" stop-opacity="0.25" />
<stop offset="0.54" stop-color="#808080" stop-opacity="0.12" />
<stop offset="1" stop-color="#808080" stop-opacity="0.1" />
</linearGradient>
<linearGradient id="linear_fill_11_256_0" x1="24685.34765625" y1="4763.92041015625" x2="24685.34765625" y2="4539.2158203125" gradientUnits="userSpaceOnUse">
<stop offset="0" stop-color="#808080" stop-opacity="0.25" />
<stop offset="0.54" stop-color="#808080" stop-opacity="0.12" />
<stop offset="1" stop-color="#808080" stop-opacity="0.1" />
</linearGradient>
<linearGradient id="linear_fill_11_259_0" x1="9499.482421875" y1="5005.61376953125" x2="9499.482421875" y2="4756.9189453125" gradientUnits="userSpaceOnUse">
<stop offset="0" stop-color="#808080" stop-opacity="0.25" />
<stop offset="0.54" stop-color="#808080" stop-opacity="0.12" />
<stop offset="1" stop-color="#808080" stop-opacity="0.1" />
</linearGradient>
<linearGradient id="linear_fill_11_262" x1="79162.6796875" y1="57240.95703125" x2="79162.6796875" y2="12041.734375" gradientUnits="userSpaceOnUse">
<stop offset="0" stop-color="#808080" stop-opacity="0.25" />
<stop offset="0.54" stop-color="#808080" stop-opacity="0.12" />
<stop offset="1" stop-color="#808080" stop-opacity="0.1" />
</linearGradient>
<linearGradient id="linear_fill_11_278" x1="1548.5806884765625" y1="4950.29833984375" x2="1548.5806884765625" y2="4643.33935546875" gradientUnits="userSpaceOnUse">
<stop offset="0" stop-color="#808080" stop-opacity="0.25" />
<stop offset="0.54" stop-color="#808080" stop-opacity="0.12" />
<stop offset="1" stop-color="#808080" stop-opacity="0.1" />
</linearGradient>
<linearGradient id="linear_fill_11_280" x1="2252.04296875" y1="4950.29833984375" x2="2252.04296875" y2="4643.33935546875" gradientUnits="userSpaceOnUse">
<stop offset="0" stop-color="#808080" stop-opacity="0.25" />
<stop offset="0.54" stop-color="#808080" stop-opacity="0.12" />
<stop offset="1" stop-color="#808080" stop-opacity="0.1" />
</linearGradient>
<linearGradient id="linear_fill_11_282" x1="2955.505615234375" y1="4950.29833984375" x2="2955.505615234375" y2="4643.33935546875" gradientUnits="userSpaceOnUse">
<stop offset="0" stop-color="#808080" stop-opacity="0.25" />
<stop offset="0.54" stop-color="#808080" stop-opacity="0.12" />
<stop offset="1" stop-color="#808080" stop-opacity="0.1" />
</linearGradient>
<linearGradient id="linear_fill_11_284" x1="3658.96826171875" y1="4950.29833984375" x2="3658.96826171875" y2="4643.33935546875" gradientUnits="userSpaceOnUse">
<stop offset="0" stop-color="#808080" stop-opacity="0.25" />
<stop offset="0.54" stop-color="#808080" stop-opacity="0.12" />
<stop offset="1" stop-color="#808080" stop-opacity="0.1" />
</linearGradient>
<linearGradient id="linear_fill_11_294" x1="13360.34375" y1="6146.490234375" x2="13360.34375" y2="4945.70166015625" gradientUnits="userSpaceOnUse">
<stop offset="0" stop-color="#808080" stop-opacity="0.25" />
<stop offset="0.54" stop-color="#808080" stop-opacity="0.12" />
<stop offset="1" stop-color="#808080" stop-opacity="0.1" />
</linearGradient>
<linearGradient id="linear_fill_11_297" x1="11901.771484375" y1="2915.29052734375" x2="11901.771484375" y2="2415.614501953125" gradientUnits="userSpaceOnUse">
<stop offset="0" stop-color="#808080" stop-opacity="0.25" />
<stop offset="0.54" stop-color="#808080" stop-opacity="0.12" />
<stop offset="1" stop-color="#808080" stop-opacity="0.1" />
</linearGradient>
<linearGradient id="linear_fill_11_299" x1="17858.7265625" y1="2577.123779296875" x2="17858.7265625" y2="2077.44775390625" gradientUnits="userSpaceOnUse">
<stop offset="0" stop-color="#808080" stop-opacity="0.25" />
<stop offset="0.54" stop-color="#808080" stop-opacity="0.12" />
<stop offset="1" stop-color="#808080" stop-opacity="0.1" />
</linearGradient>
<linearGradient id="linear_fill_11_303" x1="9982.142578125" y1="10329.908203125" x2="9982.142578125" y2="700.787109375" gradientUnits="userSpaceOnUse">
<stop offset="0" stop-color="#808080" stop-opacity="0.25" />
<stop offset="0.54" stop-color="#808080" stop-opacity="0.12" />
<stop offset="1" stop-color="#808080" stop-opacity="0.1" />
</linearGradient>
</defs>
</svg>
