<svg xmlns="http://www.w3.org/2000/svg" xmlns:xlink="http://www.w3.org/1999/xlink" width="30" height="30" viewBox="0 0 30 30" fill="none">
<path d="M3.9375 25.3125C3.9375 25.725 4.275 26.0625 4.6875 26.0625L14.0625 26.0625C14.475 26.0625 14.8125 25.725 14.8125 25.3125L14.8125 21.4312C16.5187 23.0625 18.7875 24.9937 20.4188 25.65C21.075 25.9312 21.7875 26.0625 22.5 26.0625C23.2125 26.0625 23.925 25.9312 24.5812 25.65C25.2375 25.3687 25.8375 24.975 26.3438 24.4688C26.85 23.9625 27.2437 23.3625 27.525 22.7062C27.8062 22.05 27.9375 21.3375 27.9375 20.625C27.9375 19.9125 27.8062 19.2 27.525 18.5625C25.9312 14.55 16.4625 4.10625 12.3938 2.475C11.7375 2.19375 11.025 2.0625 10.3125 2.0625C9.6 2.0625 8.8875 2.19375 8.23125 2.475C7.575 2.75625 6.975 3.15 6.46875 3.65625C5.9625 4.1625 5.56875 4.7625 5.2875 5.41875C5.00625 6.075 4.875 6.7875 4.875 7.5C4.875 8.2125 5.00625 8.925 5.2875 9.5625C5.6625 10.5 6.4125 11.6812 7.1625 12.75C5.775 12.8813 4.55625 13.1438 3.675 13.5188C3.35625 13.65 3.075 13.8375 2.83125 14.0813C2.5875 14.325 2.4 14.6062 2.26875 14.925C2.1375 15.2437 2.0625 15.5813 2.0625 15.9375C2.0625 16.2938 2.1375 16.6313 2.26875 16.95C2.4 17.2687 2.5875 17.55 2.83125 17.7938C3.075 18.0375 3.35625 18.225 3.675 18.3563C3.75 18.3937 3.84375 18.4125 3.9375 18.45L3.9375 25.3125ZM6.675 9C6.46875 8.53125 6.375 8.00625 6.375 7.5C6.375 6.99375 6.46875 6.46875 6.675 6C6.88125 5.5125 7.1625 5.1 7.5375 4.725C7.9125 4.35 8.34375 4.06875 8.8125 3.8625C9.3 3.65625 9.80625 3.5625 10.3125 3.5625C10.8375 3.5625 11.3438 3.65625 11.8313 3.8625C12.7125 4.21875 13.8938 5.0625 15.2437 6.20625L13.5375 7.9125C13.2375 8.2125 13.2375 8.68125 13.5375 8.98125C13.6875 9.1125 13.875 9.1875 14.0625 9.1875C14.25 9.1875 14.4375 9.1125 14.5875 8.9625L16.35 7.2C17.2313 8.00625 18.15 8.925 19.05 9.88125L17.2687 11.6625C16.9688 11.9625 16.9688 12.4312 17.2687 12.7312C17.4375 12.8625 17.625 12.9375 17.8125 12.9375C18 12.9375 18.1875 12.8625 18.3375 12.7125L20.0812 10.9688C20.9625 11.925 21.8062 12.9 22.575 13.8562L21.0187 15.4125C20.7188 15.7125 20.7188 16.1812 21.0187 16.4813C21.1875 16.6125 21.375 16.6875 21.5625 16.6875C21.75 16.6875 21.9375 16.6125 22.0875 16.4625L23.5125 15.0375C24.7687 16.6688 25.7437 18.1313 26.1187 19.125C26.325 19.5938 26.4188 20.1187 26.4188 20.625C26.4188 21.15 26.325 21.6562 26.1187 22.125C25.9125 22.6125 25.6313 23.025 25.2563 23.4C24.8813 23.775 24.45 24.0562 23.9813 24.2625C23.4937 24.4688 22.9875 24.5625 22.4813 24.5625C21.9562 24.5625 21.45 24.4688 20.9625 24.2625C19.65 23.7375 17.4 21.9562 14.7937 19.3312L14.7937 18.45C14.8875 18.4312 14.9625 18.3937 15.0562 18.3563C15.375 18.225 15.6562 18.0375 15.9 17.7938C16.1437 17.55 16.3312 17.2687 16.4625 16.95C16.5938 16.6313 16.6688 16.2938 16.6688 15.9375C16.6688 15.5813 16.5938 15.2437 16.4625 14.925C16.3312 14.6062 16.1437 14.325 15.9 14.0813C15.6562 13.8375 15.375 13.65 15.0562 13.5188C13.725 12.975 11.6625 12.6562 9.35625 12.6562L8.925 12.6562C7.81875 11.1375 7.0125 9.84375 6.675 9ZM3.9 16.725C3.7875 16.6125 3.7125 16.5 3.65625 16.3687C3.6 16.2375 3.5625 16.0875 3.5625 15.9375C3.5625 15.7875 3.6 15.6375 3.65625 15.5063C3.7125 15.375 3.7875 15.2437 3.9 15.15C4.0125 15.0375 4.125 14.9625 4.275 14.9062C5.26875 14.4937 6.84375 14.2312 8.625 14.175C8.86875 14.175 9.13125 14.1562 9.39375 14.1562C11.475 14.1562 13.3875 14.4375 14.5125 14.9062C14.6438 14.9625 14.775 15.0375 14.8875 15.15C15 15.2625 15.075 15.375 15.1313 15.5063C15.1875 15.6375 15.225 15.7875 15.225 15.9375C15.225 16.0875 15.1875 16.2375 15.1313 16.3687C15.075 16.5 15 16.6313 14.8875 16.725C14.775 16.8375 14.6625 16.9125 14.5312 16.9688C14.3625 17.025 14.2125 17.0625 14.0625 17.0625C13.65 17.0625 13.3125 17.4 13.3125 17.8125L13.3125 24.5625L5.4375 24.5625L5.4375 17.8125C5.4375 17.4 5.1 17.0625 4.6875 17.0625C4.5375 17.0625 4.3875 17.025 4.25625 16.9688C4.125 16.9125 3.99375 16.8375 3.9 16.725Z"   fill="#8F95B2" >
</path>
</svg>
