<svg xmlns="http://www.w3.org/2000/svg" xmlns:xlink="http://www.w3.org/1999/xlink" width="30" height="30" viewBox="0 0 30 30" fill="none">
<path d="M19.6875 3.5626C20.1 3.5626 20.4375 3.2251 20.4375 2.8126C20.4375 2.4001 20.1 2.0626 19.6875 2.0626C17.85 2.0626 16.2375 2.98135 15.2437 4.36885C15.1687 4.1251 15.075 3.88135 14.9812 3.6376C14.475 2.4001 13.725 1.29385 12.7875 0.356348C12.4875 0.0563477 12.0188 0.0563477 11.7188 0.356348C11.4187 0.656348 11.4187 1.1251 11.7188 1.4251C12.0938 1.8001 12.45 2.23135 12.75 2.6626C12.0188 2.2876 11.1938 2.08135 10.3125 2.08135C9.9 2.08135 9.5625 2.41885 9.5625 2.83135C9.5625 3.24385 9.9 3.58135 10.3125 3.58135C12.4875 3.58135 14.25 5.34385 14.25 7.51885L14.25 7.70635L14.0625 7.70635C13.5938 7.70635 13.125 7.8001 12.6938 7.96885C12.2625 8.15635 11.8687 8.4001 11.5312 8.7376C11.1938 9.0751 10.9312 9.4501 10.7625 9.9001C10.5938 10.3126 10.5 10.7813 10.5 11.2501C10.5 11.3063 10.5 11.3626 10.5188 11.4188L10.7437 12.3938L10.7437 12.4313L14.25 27.3563C14.325 27.6938 14.625 27.9376 14.9812 27.9376C15.3375 27.9376 15.6375 27.6938 15.7125 27.3563L19.4625 11.4188C19.4813 11.3626 19.4813 11.3063 19.4813 11.2501C19.4813 10.7813 19.3875 10.3126 19.2188 9.88135C19.0312 9.4501 18.7875 9.05635 18.45 8.71885C18.1125 8.38135 17.7375 8.11885 17.2875 7.9501C16.875 7.78135 16.4062 7.6876 15.9375 7.6876L15.75 7.6876L15.75 7.5001C15.75 5.3251 17.5125 3.5626 19.6875 3.5626ZM16.725 9.3376C16.9688 9.4501 17.1938 9.6001 17.4 9.7876C17.5875 9.9751 17.7375 10.2001 17.85 10.4626C17.9438 10.6876 18 10.9313 18 11.1751L17.0438 15.2626L15.9375 15.2626C15.525 15.2626 15.1875 15.6001 15.1875 16.0126C15.1875 16.4251 15.525 16.7626 15.9375 16.7626L16.6875 16.7626L15 23.9251L12.4312 13.0126L14.0625 13.0126C14.475 13.0126 14.8125 12.6751 14.8125 12.2626C14.8125 11.8501 14.475 11.5126 14.0625 11.5126L12.075 11.5126L12 11.1751C12 10.9313 12.0562 10.6876 12.15 10.4626C12.2625 10.2188 12.4125 9.99385 12.6 9.7876C12.7875 9.6001 13.0125 9.4501 13.275 9.3376C13.5188 9.2251 13.7812 9.1876 14.0625 9.1876L15.9375 9.1876C16.2188 9.1876 16.4813 9.24385 16.725 9.3376Z"   fill="#8F95B2" >
</path>
</svg>
