<svg xmlns="http://www.w3.org/2000/svg" xmlns:xlink="http://www.w3.org/1999/xlink" width="30" height="30" viewBox="0 0 30 30" fill="none">
<path d="M5.8125 15.0001C5.8125 16.7063 7.03125 18.1501 8.64375 18.4876C8.64375 18.5813 8.625 18.6563 8.625 18.7501C8.625 20.4563 9.84375 21.9001 11.4563 22.2376C11.4563 22.3313 11.4375 22.4063 11.4375 22.5001C11.4375 24.4688 13.0312 26.0626 15 26.0626C16.9688 26.0626 18.5625 24.4688 18.5625 22.5001C18.5625 22.4063 18.5625 22.3313 18.5438 22.2376C20.1562 21.9001 21.375 20.4563 21.375 18.7501C21.375 18.6563 21.375 18.5813 21.3563 18.4876C22.9688 18.1501 24.1875 16.7063 24.1875 15.0001C24.1875 13.2938 22.9688 11.8501 21.3563 11.5126C21.3563 11.4188 21.375 11.3438 21.375 11.2501C21.375 9.28135 19.7812 7.6876 17.8125 7.6876C17.0438 7.6876 16.3312 7.93135 15.75 8.34385L15.75 5.6251C15.75 5.34385 15.8062 5.08135 15.9 4.8376C16.0125 4.59385 16.1625 4.36885 16.35 4.1626C16.5375 3.9751 16.7625 3.8251 17.025 3.7126C17.5312 3.50635 18.1125 3.50635 18.6 3.7126C18.8438 3.8251 19.0688 3.9751 19.275 4.1626C19.425 4.3126 19.5562 4.5001 19.65 4.6876C19.5562 4.8751 19.425 5.0626 19.275 5.2126C19.0875 5.4001 18.8625 5.5501 18.6 5.6626C18.225 5.8126 18.0375 6.2626 18.1875 6.6376C18.3375 7.0126 18.7875 7.2001 19.1625 7.0501C19.5938 6.8626 19.9875 6.61885 20.325 6.28135C20.6625 5.94385 20.925 5.5501 21.0938 5.11885C21.1313 5.0251 21.15 4.93135 21.15 4.8376L21.15 4.55635C21.15 4.4626 21.1313 4.3501 21.0938 4.2751C20.9062 3.84385 20.6625 3.4501 20.325 3.1126C19.9875 2.7751 19.6125 2.51259 19.1625 2.34385C18.3 1.9876 17.3062 1.9876 16.425 2.34385C15.9937 2.53135 15.6 2.7751 15.2625 3.1126C14.925 3.4501 14.6625 3.84385 14.4937 4.2751C14.3438 4.6876 14.25 5.15635 14.25 5.6251L14.25 8.34385C13.6687 7.93135 12.9563 7.6876 12.1875 7.6876C10.2188 7.6876 8.625 9.28135 8.625 11.2501C8.625 11.3438 8.625 11.4188 8.64375 11.5126C7.03125 11.8501 5.8125 13.2938 5.8125 15.0001ZM10.125 18.7501C10.125 18.6563 10.125 18.5626 10.1438 18.4688C10.425 18.4126 10.7063 18.3001 10.95 18.1876C10.9688 18.1688 11.0063 18.1688 11.025 18.1501C11.0813 18.1126 11.1375 18.0938 11.1938 18.0564C11.2312 18.0376 11.2688 18.0001 11.325 17.9813C11.3625 17.9438 11.4187 17.9251 11.4563 17.8876C11.5125 17.8501 11.55 17.8126 11.5875 17.7751C11.625 17.7376 11.6625 17.7188 11.7 17.6814C11.7375 17.6438 11.7937 17.6063 11.8313 17.5501L11.925 17.4563C11.9625 17.4188 12 17.3626 12.0375 17.3251C12.075 17.2876 12.1125 17.2501 12.1313 17.2126L12.1687 17.1751L12.2063 17.2126C12.2437 17.2501 12.2625 17.2876 12.3 17.3251C12.3375 17.3626 12.375 17.4188 12.4125 17.4563L12.5063 17.5501C12.5437 17.5876 12.6 17.6251 12.6375 17.6814C12.675 17.7188 12.7125 17.7376 12.75 17.7751C12.7875 17.8126 12.8438 17.8501 12.8813 17.8876C12.9187 17.9251 12.975 17.9438 13.0125 17.9813C13.05 18.0001 13.0875 18.0376 13.1438 18.0564C13.2 18.0938 13.2563 18.1126 13.3125 18.1501C13.3313 18.1688 13.3687 18.1688 13.3875 18.1876C13.65 18.3188 13.9125 18.4126 14.1938 18.4688C14.25 18.5626 14.25 18.6563 14.25 18.7501C14.25 18.9938 14.2125 19.2188 14.1375 19.4438C14.0813 19.5938 14.025 19.7251 13.9312 19.8563C13.9125 19.8938 13.875 19.9313 13.8562 19.9688C13.8562 19.9876 13.8375 19.9876 13.8188 20.0063C13.8 20.0438 13.7625 20.0626 13.7437 20.1001L13.7063 20.1376C13.65 20.1938 13.6125 20.2501 13.5562 20.2876L13.5188 20.3251C13.4812 20.3438 13.4625 20.3813 13.425 20.4001L13.3875 20.4376C13.0688 20.6626 12.6938 20.8126 12.3 20.8313L12.1687 20.8313C11.0437 20.8126 10.125 19.8938 10.125 18.7501ZM13.8375 14.4001C13.8938 14.3626 13.95 14.3438 14.0063 14.3063C14.0437 14.2876 14.0813 14.2501 14.1375 14.2313C14.175 14.1938 14.2312 14.1751 14.2688 14.1376C14.325 14.1001 14.3625 14.0626 14.4 14.0251C14.4375 13.9876 14.475 13.9688 14.5125 13.9313C14.55 13.8938 14.6062 13.8563 14.6438 13.8001L14.7375 13.7063C14.775 13.6688 14.8125 13.6126 14.85 13.5751C14.8875 13.5376 14.925 13.5001 14.9438 13.4626L14.9812 13.4251L15.0188 13.4626C15.0562 13.5001 15.075 13.5376 15.1125 13.5751C15.15 13.6126 15.1875 13.6688 15.225 13.7063L15.3188 13.8001C15.3562 13.8376 15.4125 13.8751 15.45 13.9313C15.4875 13.9688 15.525 13.9876 15.5625 14.0251C15.6 14.0626 15.6562 14.1001 15.6938 14.1376C15.7312 14.1751 15.7875 14.1938 15.825 14.2313C15.8625 14.2501 15.9 14.2876 15.9563 14.3063C16.0125 14.3438 16.0688 14.3626 16.125 14.4001C16.1437 14.4188 16.1812 14.4188 16.2 14.4376C16.4625 14.5688 16.725 14.6626 17.0063 14.7188C17.0625 14.8126 17.0625 14.9063 17.0625 15.0001C17.0625 15.2438 17.025 15.4688 16.95 15.6938C16.8937 15.8438 16.8375 15.9751 16.7437 16.1063C16.725 16.1438 16.6875 16.1814 16.6688 16.2188C16.6688 16.2376 16.65 16.2376 16.6313 16.2563C16.6125 16.2938 16.575 16.3126 16.5562 16.3501L16.5187 16.3876C16.4625 16.4438 16.425 16.5001 16.3687 16.5376L16.3312 16.5751C16.2938 16.5938 16.275 16.6313 16.2375 16.6501L16.2 16.6876C15.8813 16.9126 15.5063 17.0626 15.1125 17.0813L14.8687 17.0813L14.85 17.0813C14.4375 17.0626 14.0625 16.9126 13.7625 16.6876C13.7437 16.6688 13.725 16.6688 13.725 16.6501C13.6875 16.6313 13.6687 16.6126 13.6313 16.5751L13.5938 16.5376L13.4438 16.3876L13.4062 16.3501C13.3875 16.3126 13.35 16.2938 13.3313 16.2563L13.2937 16.2188C13.275 16.1814 13.2375 16.1438 13.2188 16.1063C13.1438 15.9751 13.0688 15.8438 13.0125 15.6938C12.975 15.4688 12.9375 15.2438 12.9375 15.0001C12.9375 14.9063 12.9375 14.8126 12.9563 14.7188C13.2375 14.6626 13.5188 14.5501 13.7625 14.4376C13.8 14.4188 13.8188 14.4188 13.8375 14.4001ZM15 24.5626C13.8562 24.5626 12.9375 23.6438 12.9375 22.5001C12.9375 22.4063 12.9375 22.3126 12.9563 22.2188C13.2375 22.1626 13.5188 22.0501 13.7625 21.9376C13.7812 21.9188 13.8188 21.9188 13.8375 21.9001C13.8938 21.8626 13.95 21.8438 14.0063 21.8063C14.0437 21.7876 14.0813 21.7501 14.1375 21.7313C14.175 21.6938 14.2312 21.6751 14.2688 21.6376C14.325 21.6001 14.3625 21.5626 14.4 21.5251C14.4375 21.4876 14.475 21.4688 14.5125 21.4313C14.55 21.3938 14.6062 21.3563 14.6438 21.3001L14.7375 21.2063C14.775 21.1688 14.8125 21.1126 14.85 21.0751C14.8875 21.0376 14.925 21.0001 14.9438 20.9626L14.9812 20.9251L15.0188 20.9626C15.0562 21.0001 15.075 21.0376 15.1125 21.0751C15.15 21.1126 15.1875 21.1688 15.225 21.2063L15.3188 21.3001C15.3562 21.3376 15.4125 21.3751 15.45 21.4313C15.4875 21.4688 15.525 21.4876 15.5625 21.5251C15.6 21.5626 15.6562 21.6001 15.6938 21.6376C15.7312 21.6751 15.7875 21.6938 15.825 21.7313C15.8625 21.7501 15.9 21.7876 15.9563 21.8063C16.0125 21.8438 16.0688 21.8626 16.125 21.9001C16.1437 21.9188 16.1812 21.9188 16.2 21.9376C16.4625 22.0688 16.725 22.1626 17.0063 22.2188C17.025 22.3126 17.025 22.4063 17.025 22.5001C17.0625 23.6438 16.1437 24.5626 15 24.5626ZM17.8125 20.8126L17.7 20.8126L17.6812 20.8126C17.2687 20.7938 16.8937 20.6438 16.5938 20.4188C16.575 20.4001 16.5562 20.4001 16.5562 20.3813C16.5187 20.3626 16.5 20.3438 16.4625 20.3063L16.425 20.2688L16.275 20.1188L16.2375 20.0813C16.2188 20.0438 16.1812 20.0251 16.1625 19.9876L16.125 19.9501C16.1063 19.9126 16.0688 19.8751 16.05 19.8376C15.975 19.7063 15.9 19.5751 15.8438 19.4251C15.7688 19.2001 15.7312 18.9751 15.7312 18.7313C15.7312 18.6376 15.7312 18.5438 15.75 18.4501C16.0312 18.3938 16.3125 18.2813 16.5562 18.1688C16.575 18.1501 16.6125 18.1501 16.6313 18.1313C16.6875 18.0938 16.7437 18.0751 16.8 18.0376C16.8375 18.0188 16.875 17.9813 16.9312 17.9626C16.9688 17.9251 17.025 17.9063 17.0625 17.8689C17.1187 17.8313 17.1562 17.7938 17.1938 17.7563C17.2313 17.7188 17.2687 17.7001 17.3062 17.6626C17.3438 17.6251 17.4 17.5876 17.4375 17.5313L17.5312 17.4376C17.5688 17.4001 17.6063 17.3438 17.6437 17.3064C17.6812 17.2688 17.7188 17.2313 17.7375 17.1938L17.775 17.1563L17.8125 17.1938C17.85 17.2313 17.8687 17.2688 17.9062 17.3064C17.9438 17.3438 17.9813 17.4001 18.0187 17.4376L18.1125 17.5313C18.15 17.5688 18.2062 17.6063 18.2437 17.6626C18.2812 17.7001 18.3188 17.7188 18.3563 17.7563C18.3937 17.7938 18.45 17.8313 18.4875 17.8689C18.525 17.9063 18.5812 17.9251 18.6187 17.9626C18.6562 17.9813 18.6938 18.0188 18.75 18.0376C18.8062 18.0751 18.8625 18.0938 18.9188 18.1313C18.9375 18.1501 18.975 18.1501 18.9937 18.1688C19.2563 18.3001 19.5187 18.3938 19.8 18.4501C19.8188 18.5438 19.8188 18.6376 19.8188 18.7313C19.875 19.8938 18.9562 20.8126 17.8125 20.8126ZM22.6875 15.0001C22.6875 16.1438 21.7687 17.0626 20.625 17.0626L20.5125 17.0626L20.4937 17.0626C20.0812 17.0438 19.7062 16.8938 19.4062 16.6688C19.3875 16.6501 19.3687 16.6501 19.3687 16.6313C19.3312 16.6126 19.3125 16.5938 19.275 16.5564L19.2375 16.5188L19.0875 16.3689L19.05 16.3313C19.0312 16.2938 18.9937 16.2751 18.975 16.2376L18.9375 16.2001C18.9188 16.1626 18.8813 16.1251 18.8625 16.0876C18.7875 15.9563 18.7125 15.8251 18.6562 15.6751C18.6 15.4688 18.5625 15.2438 18.5625 15.0001C18.5625 14.9063 18.5625 14.8126 18.5812 14.7188C18.7125 14.7001 18.825 14.6626 18.9375 14.6251L18.9562 14.6251C19.0688 14.5876 19.1625 14.5501 19.275 14.4938C19.2938 14.4751 19.3312 14.4751 19.35 14.4563C19.425 14.4188 19.5187 14.3813 19.5938 14.3251C19.6313 14.3063 19.6688 14.2876 19.6875 14.2688C19.7625 14.2313 19.8188 14.1751 19.875 14.1376C19.9125 14.1188 19.95 14.0813 19.9875 14.0626C20.0438 14.0251 20.1 13.9688 20.1562 13.9313C20.1938 13.8938 20.2313 13.8751 20.2687 13.8376C20.325 13.7813 20.3813 13.7251 20.4188 13.6688C20.4562 13.6313 20.475 13.5938 20.5125 13.5751C20.5688 13.5001 20.625 13.4438 20.6812 13.3688C20.7 13.3501 20.7188 13.3313 20.7375 13.2938C20.8125 13.2001 20.8687 13.0876 20.925 12.9751C21.9188 13.1063 22.6875 13.9688 22.6875 15.0001ZM17.8125 9.1876C18.9562 9.1876 19.875 10.1063 19.875 11.2501C19.875 11.4938 19.8375 11.7188 19.7625 11.9438C19.7062 12.0938 19.65 12.2251 19.5562 12.3563C19.5375 12.3938 19.5 12.4313 19.4813 12.4688C19.4813 12.4876 19.4625 12.4876 19.4438 12.5063C19.425 12.5438 19.3875 12.5626 19.3687 12.6001L19.3312 12.6376C19.275 12.6938 19.2375 12.7501 19.1812 12.7876L19.1437 12.8251C19.1063 12.8438 19.0875 12.8813 19.05 12.9001L19.0125 12.9376C18.6938 13.1626 18.3188 13.3126 17.925 13.3313L17.6812 13.3313L17.6625 13.3313C17.25 13.3126 16.875 13.1626 16.575 12.9376C16.5562 12.9188 16.5375 12.9188 16.5375 12.9001C16.5 12.8813 16.4813 12.8626 16.4438 12.8251L16.4062 12.7876L16.2563 12.6376L16.2188 12.6001C16.2 12.5626 16.1625 12.5438 16.1437 12.5063L16.1063 12.4688C16.0875 12.4313 16.05 12.3938 16.0312 12.3563C15.9563 12.2251 15.8813 12.0938 15.825 11.9438C15.7875 11.7188 15.75 11.4938 15.75 11.2501C15.75 10.1063 16.6688 9.1876 17.8125 9.1876ZM12.1875 9.1876C13.3313 9.1876 14.25 10.1063 14.25 11.2501C14.25 11.4938 14.2125 11.7188 14.1375 11.9438C14.0813 12.0938 14.025 12.2251 13.9312 12.3563C13.9125 12.3938 13.875 12.4313 13.8562 12.4688C13.8562 12.4876 13.8375 12.4876 13.8188 12.5063C13.8 12.5438 13.7625 12.5626 13.7437 12.6001L13.7063 12.6376C13.65 12.6938 13.6125 12.7501 13.5562 12.7876L13.5188 12.8251C13.4812 12.8438 13.4625 12.8813 13.425 12.9001L13.3875 12.9376C13.0688 13.1626 12.6938 13.3126 12.3 13.3313L12.0562 13.3313L12.0375 13.3313C11.625 13.3126 11.25 13.1626 10.95 12.9376C10.9312 12.9188 10.9125 12.9188 10.9125 12.9001C10.875 12.8813 10.8562 12.8626 10.8188 12.8251L10.7812 12.7876L10.6313 12.6376L10.5938 12.6001C10.575 12.5626 10.5375 12.5438 10.5188 12.5063L10.4812 12.4688C10.4625 12.4313 10.425 12.3938 10.4062 12.3563C10.3313 12.2251 10.2563 12.0938 10.2 11.9438C10.1625 11.7188 10.125 11.4938 10.125 11.2501C10.125 10.1063 11.0437 9.1876 12.1875 9.1876ZM9.05625 12.9563C9.1125 13.0688 9.1875 13.1626 9.24375 13.2751C9.2625 13.2938 9.28125 13.3126 9.3 13.3501C9.35625 13.4251 9.4125 13.5001 9.46875 13.5563C9.50625 13.5938 9.525 13.6313 9.5625 13.6501C9.61875 13.7063 9.65625 13.7626 9.7125 13.8188C9.75 13.8563 9.7875 13.8938 9.825 13.9126C9.88125 13.9688 9.9375 14.0063 9.99375 14.0438C10.0312 14.0813 10.0688 14.1001 10.1062 14.1188C10.1625 14.1563 10.2375 14.2126 10.2937 14.2501C10.3313 14.2688 10.3687 14.2876 10.3875 14.3063C10.4625 14.3438 10.5562 14.4001 10.6313 14.4376C10.65 14.4563 10.6875 14.4563 10.7063 14.4751C10.8 14.5126 10.9125 14.5688 11.025 14.6063L11.0437 14.6063C11.1562 14.6438 11.2875 14.6813 11.4 14.7001C11.4375 14.8126 11.4375 14.9063 11.4375 15.0001C11.4375 15.2438 11.4 15.4688 11.325 15.6938C11.2688 15.8438 11.2125 15.9751 11.1187 16.1063C11.1 16.1438 11.0625 16.1814 11.0437 16.2188C11.0437 16.2376 11.025 16.2376 11.0063 16.2563C10.9875 16.2938 10.95 16.3126 10.9312 16.3501L10.8938 16.3876C10.8375 16.4438 10.8 16.5001 10.7437 16.5376L10.7063 16.5751C10.6687 16.5938 10.65 16.6313 10.6125 16.6501L10.575 16.6876C10.2563 16.9126 9.88125 17.0626 9.4875 17.0813L9.35625 17.0813C8.2125 17.0813 7.29375 16.1626 7.29375 15.0188C7.3125 13.9688 8.08125 13.1063 9.05625 12.9563Z"   fill="#8F95B2" >
</path>
</svg>
