<svg xmlns="http://www.w3.org/2000/svg" xmlns:xlink="http://www.w3.org/1999/xlink" width="902" height="625" viewBox="0 0 902 625" fill="none">
    <g  clip-path="url(#clip-path-29_1385)">
        <g  clip-path="url(#clip-path-29_1386)" opacity="0.6">
            <g  opacity="0.5">
                <path d="M372.703 224.691L358.563 224.691L358.563 225.078L345.218 225.078L345.218 224.691L331.087 224.691L331.087 225.078L317.742 225.078L317.742 224.691L303.611 224.691L303.611 225.078L284.377 225.078L284.377 290.159L283.583 290.159L265.133 290.159L265.133 289.772L251.003 289.772L251.003 290.159L237.657 290.159L237.657 289.772L223.527 289.772L223.527 290.159L210.181 290.159L210.181 289.772L196.051 289.772L196.051 290.159L176.807 290.159L176.807 355.239L283.583 355.239L284.377 355.239L391.153 355.239L391.153 290.159L391.937 290.159L391.937 355.239L499.498 355.239L607.058 355.239L607.058 290.159L607.058 225.078L587.824 225.078L587.824 224.691L573.694 224.691L573.694 225.078L560.348 225.078L560.348 224.691L546.218 224.691L546.218 225.078L532.862 225.078L532.862 224.691L518.732 224.691L518.732 225.078L499.498 225.078L480.264 225.078L480.264 224.691L466.133 224.691L466.133 225.078L452.778 225.078L452.778 224.691L438.648 224.691L438.648 225.078L425.302 225.078L425.302 224.691L411.172 224.691L411.172 225.078L391.937 225.078L372.703 225.078L372.703 224.691Z"   fill="url(#linear_fill_29_1388)" >
                </path>
            </g>
            <path d="M286.111 290.158L391.938 290.158L391.938 226.132L286.111 226.132L286.111 290.158Z"   fill="#F55F44" >
            </path>
            <path d="M391.938 290.158L497.765 290.158L497.765 226.132L391.938 226.132L391.938 290.158Z"   fill="#4D8AF0" >
            </path>
            <path d="M497.765 290.158L603.591 290.158L603.591 226.132L497.765 226.132L497.765 290.158Z"   fill="#3AD29F" >
            </path>
            <path d="M285.336 354.184L391.163 354.184L391.163 290.158L285.336 290.158L285.336 354.184Z"   fill="#4D8AF0" >
            </path>
            <path d="M180.284 354.184L286.111 354.184L286.111 290.158L180.284 290.158L180.284 354.184Z"   fill="#F55F44" >
            </path>
            <path d="M391.938 354.184L497.765 354.184L497.765 290.158L391.938 290.158L391.938 354.184Z"   fill="#3AD29F" >
            </path>
            <path d="M497.765 354.184L603.591 354.184L603.591 290.158L497.765 290.158L497.765 354.184Z"   fill="#FDD835" >
            </path>
            <g  opacity="0.1">
                <path d="M305.035 289.772L318.942 289.772L318.942 225.746L305.035 225.746L305.035 289.772Z"   fill="#000000" >
                </path>
                <path d="M332.076 289.772L345.983 289.772L345.983 225.746L332.076 225.746L332.076 289.772Z"   fill="#000000" >
                </path>
                <path d="M359.105 289.772L373.013 289.772L373.013 225.746L359.105 225.746L359.105 289.772Z"   fill="#000000" >
                </path>
            </g>
            <g  opacity="0.1">
                <path d="M410.862 289.772L424.77 289.772L424.77 225.746L410.862 225.746L410.862 289.772Z"   fill="#000000" >
                </path>
                <path d="M437.893 289.772L451.801 289.772L451.801 225.746L437.893 225.746L437.893 289.772Z"   fill="#000000" >
                </path>
                <path d="M464.933 289.772L478.84 289.772L478.84 225.746L464.933 225.746L464.933 289.772Z"   fill="#000000" >
                </path>
            </g>
            <g  opacity="0.1">
                <path d="M516.689 289.772L530.596 289.772L530.596 225.746L516.689 225.746L516.689 289.772Z"   fill="#000000" >
                </path>
                <path d="M543.719 289.772L557.627 289.772L557.627 225.746L543.719 225.746L543.719 289.772Z"   fill="#000000" >
                </path>
                <path d="M570.759 289.772L584.667 289.772L584.667 225.746L570.759 225.746L570.759 289.772Z"   fill="#000000" >
                </path>
            </g>
            <g  opacity="0.1">
                <path d="M305.035 353.798L318.942 353.798L318.942 289.772L305.035 289.772L305.035 353.798Z"   fill="#000000" >
                </path>
                <path d="M332.076 353.798L345.983 353.798L345.983 289.772L332.076 289.772L332.076 353.798Z"   fill="#000000" >
                </path>
                <path d="M359.105 353.798L373.013 353.798L373.013 289.772L359.105 289.772L359.105 353.798Z"   fill="#000000" >
                </path>
            </g>
            <g  opacity="0.1">
                <path d="M199.208 353.798L213.116 353.798L213.116 289.772L199.208 289.772L199.208 353.798Z"   fill="#000000" >
                </path>
                <path d="M226.249 353.798L240.157 353.798L240.157 289.772L226.249 289.772L226.249 353.798Z"   fill="#000000" >
                </path>
                <path d="M253.279 353.798L267.187 353.798L267.187 289.772L253.279 289.772L253.279 353.798Z"   fill="#000000" >
                </path>
            </g>
            <g  opacity="0.1">
                <path d="M410.862 353.798L424.77 353.798L424.77 289.772L410.862 289.772L410.862 353.798Z"   fill="#000000" >
                </path>
                <path d="M437.893 353.798L451.801 353.798L451.801 289.772L437.893 289.772L437.893 353.798Z"   fill="#000000" >
                </path>
                <path d="M464.933 353.798L478.84 353.798L478.84 289.772L464.933 289.772L464.933 353.798Z"   fill="#000000" >
                </path>
            </g>
            <g  opacity="0.1">
                <path d="M516.689 353.798L530.596 353.798L530.596 289.772L516.689 289.772L516.689 353.798Z"   fill="#000000" >
                </path>
                <path d="M543.719 353.798L557.627 353.798L557.627 289.772L543.719 289.772L543.719 353.798Z"   fill="#000000" >
                </path>
                <path d="M570.759 353.798L584.667 353.798L584.667 289.772L570.759 289.772L570.759 353.798Z"   fill="#000000" >
                </path>
            </g>
            <g  opacity="0.5">
                <path d="M66.4483 314.435C66.4483 314.435 46.6718 402.669 147.898 463.378L147.898 483.349L790.006 483.349L790.006 466.743C790.006 466.743 846.943 451.762 818.47 346.912L349.547 349.407L289.443 314.435L66.4483 314.435Z"   fill="url(#linear_fill_29_1425)" >
                </path>
            </g>
            <path d="M75.2321 321.785C75.2321 321.785 55.9204 403.549 154.793 459.867L154.793 478.378L782.025 478.378L782.025 462.904C782.025 462.904 837.636 449.064 809.84 351.864L351.745 354.185L293.065 321.785L75.2321 321.785Z" stroke="rgba(108, 99, 255, 1.00)" stroke-width="0.54"      fill="#6C63FF" >
            </path>
            <g  opacity="0.5">
                <path     fill="url(#linear_fill_29_1428_0)"  d="M685.081 391.577C685.081 396.838 689.345 401.102 694.605 401.102L735.031 401.102C740.291 401.102 744.555 396.838 744.555 391.577L744.555 390.829C744.555 385.569 740.291 381.304 735.031 381.304L694.605 381.304C689.345 381.304 685.081 385.569 685.081 390.829L685.081 391.577Z">
                </path>
            </g>
            <path     fill="#FFFFFF"  d="M687.008 391.553C687.008 396.474 690.997 400.464 695.919 400.464L733.717 400.464C738.638 400.464 742.628 396.474 742.628 391.553L742.628 390.864C742.628 385.942 738.638 381.952 733.717 381.952L695.919 381.952C690.997 381.952 687.008 385.942 687.008 390.864L687.008 391.553Z">
            </path>
            <g  opacity="0.5">
                <path     fill="url(#linear_fill_29_1431_0)"  d="M751.508 391.593C751.508 397.128 755.995 401.615 761.53 401.615L762.338 401.615C767.873 401.615 772.36 397.128 772.36 391.593L772.36 390.813C772.36 385.278 767.873 380.792 762.338 380.792L761.53 380.792C755.995 380.792 751.508 385.278 751.508 390.813L751.508 391.593Z">
                </path>
            </g>
            <path     fill="#FFFFFF"  d="M752.671 391.553C752.671 396.474 756.661 400.464 761.582 400.464L762.297 400.464C767.218 400.464 771.208 396.474 771.208 391.553L771.208 390.864C771.208 385.942 767.218 381.952 762.297 381.952L761.582 381.952C756.661 381.952 752.671 385.942 752.671 390.864L752.671 391.553Z">
            </path>
            <g  opacity="0.5">
                <path d="M752.428 252.516L752.428 156.806L682.009 156.806L682.009 98.2829L693.467 98.2829L693.467 85.6227L682.009 85.6227L682.009 74.5487L668.906 74.5487L668.906 85.6227L658.262 85.6227L658.262 98.2829L668.906 98.2829L668.906 156.806L647.618 156.806L647.618 191.614L647.618 220.087L647.618 252.516L647.618 271.502L627.145 271.502L627.145 285.738L647.618 285.738L647.618 288.504L647.618 355.335L802.383 355.335L802.383 288.504L802.383 285.738L817.937 285.738L817.937 271.502L802.383 271.502L802.383 252.516L752.428 252.516Z"   fill="url(#linear_fill_29_1434)" >
                </path>
            </g>
            <path d="M650.708 351.864L796.698 351.864L796.698 251.588L650.708 251.588L650.708 351.864Z"   fill="#F5F5F5" >
            </path>
            <path d="M650.708 251.588L749.581 251.588L749.581 158.247L650.708 158.247L650.708 251.588Z"   fill="#F5F5F5" >
            </path>
            <path d="M697.051 251.588L731.035 251.588L731.035 199.129L697.051 199.129L697.051 251.588Z" stroke="rgba(108, 99, 255, 1.00)" stroke-width="0.54"      fill="#6C63FF" >
            </path>
            <path d="M650.708 219.952L670.795 219.952L670.795 192.185L650.708 192.185L650.708 219.952Z"   fill="#FFFFFF" >
            </path>
            <path d="M670.785 158.247L683.143 158.247L683.143 78.021L670.785 78.021L670.785 158.247Z"   fill="#E0E0E0" >
            </path>
            <path d="M660.742 101.166L693.961 101.166L693.961 88.8246L660.742 88.8246L660.742 101.166Z"   fill="#E0E0E0" >
            </path>
            <path d="M631.397 283.988L811.371 283.988L811.371 270.099L631.397 270.099L631.397 283.988Z"   fill="#E0E0E0" >
            </path>
            <path d="M683.143 300.952C679.302 300.952 676.189 304.061 676.189 307.896C676.189 311.732 679.302 314.841 683.143 314.841C686.983 314.841 690.097 311.732 690.097 307.896C690.097 304.061 686.983 300.952 683.143 300.952Z"   fill="#FFFFFF" >
            </path>
            <path d="M707.869 300.952C704.028 300.952 700.915 304.061 700.915 307.896C700.915 311.732 704.028 314.841 707.869 314.841C711.709 314.841 714.822 311.732 714.822 307.896C714.822 304.061 711.709 300.952 707.869 300.952Z"   fill="#FFFFFF" >
            </path>
            <path d="M732.584 300.952C728.744 300.952 725.631 304.061 725.631 307.896C725.631 311.732 728.744 314.841 732.584 314.841C736.425 314.841 739.538 311.732 739.538 307.896C739.538 304.061 736.425 300.952 732.584 300.952Z"   fill="#FFFFFF" >
            </path>
            <path d="M757.301 300.952C753.46 300.952 750.347 304.061 750.347 307.896C750.347 311.732 753.46 314.841 757.301 314.841C761.141 314.841 764.254 311.732 764.254 307.896C764.254 304.061 761.141 300.952 757.301 300.952Z"   fill="#FFFFFF" >
            </path>
            <g opacity="0.1">
                <path d="M154.406 478.755L781.628 478.755L781.628 460.244L154.406 460.244L154.406 478.755Z"   fill="#000000" >
                </path>
            </g>
            <g opacity="0.1">
                <path d="M293.065 325.257L351.745 357.647L809.841 355.335C815.119 373.779 817.385 389.186 817.589 402.127C817.792 388.461 815.651 371.796 809.841 351.476L351.745 353.798L293.036 321.398L75.2321 321.398C74.0194 327.63 73.5158 333.98 73.7309 340.325C73.7441 335.266 74.2468 330.219 75.2321 325.257L293.065 325.257Z"   fill="#000000" >
                </path>
            </g>
            <g opacity="0.05">
                <path d="M650.708 286.686L796.698 286.686L796.698 283.988L650.708 283.988L650.708 286.686Z"   fill="#000000" >
                </path>
            </g>
            <g  opacity="0.5">
                <path d="M112.693 336.06C106.296 336.06 101.11 341.239 101.11 347.627C101.11 354.016 106.296 359.195 112.693 359.195C119.091 359.195 124.277 354.016 124.277 347.627C124.277 341.239 119.091 336.06 112.693 336.06Z"   fill="url(#linear_fill_29_1450)" >
                </path>
            </g>
            <g  opacity="0.5">
                <path d="M163.674 336.06C157.277 336.06 152.091 341.239 152.091 347.627C152.091 354.016 157.277 359.195 163.674 359.195C170.071 359.195 175.257 354.016 175.257 347.627C175.257 341.239 170.071 336.06 163.674 336.06Z"   fill="url(#linear_fill_29_1452)" >
                </path>
            </g>
            <g  opacity="0.5">
                <path d="M214.656 336.06C208.259 336.06 203.073 341.239 203.073 347.627C203.073 354.016 208.259 359.195 214.656 359.195C221.053 359.195 226.239 354.016 226.239 347.627C226.239 341.239 221.053 336.06 214.656 336.06Z"   fill="url(#linear_fill_29_1454)" >
                </path>
            </g>
            <g  opacity="0.5">
                <path d="M265.637 336.06C259.24 336.06 254.054 341.239 254.054 347.627C254.054 354.016 259.24 359.195 265.637 359.195C272.034 359.195 277.22 354.016 277.22 347.627C277.22 341.239 272.034 336.06 265.637 336.06Z"   fill="url(#linear_fill_29_1456)" >
                </path>
            </g>
            <path d="M112.694 338.372C107.575 338.372 103.425 342.516 103.425 347.628C103.425 352.739 107.575 356.883 112.694 356.883C117.813 356.883 121.962 352.739 121.962 347.628C121.962 342.516 117.813 338.372 112.694 338.372Z"   fill="#FFFFFF" >
            </path>
            <path d="M163.674 338.372C158.556 338.372 154.406 342.516 154.406 347.628C154.406 352.739 158.556 356.883 163.674 356.883C168.793 356.883 172.943 352.739 172.943 347.628C172.943 342.516 168.793 338.372 163.674 338.372Z"   fill="#FFFFFF" >
            </path>
            <path d="M214.656 338.372C209.537 338.372 205.387 342.516 205.387 347.628C205.387 352.739 209.537 356.883 214.656 356.883C219.775 356.883 223.924 352.739 223.924 347.628C223.924 342.516 219.775 338.372 214.656 338.372Z"   fill="#FFFFFF" >
            </path>
            <path d="M265.638 338.372C260.519 338.372 256.369 342.516 256.369 347.628C256.369 352.739 260.519 356.883 265.638 356.883C270.756 356.883 274.906 352.739 274.906 347.628C274.906 342.516 270.756 338.372 265.638 338.372Z"   fill="#FFFFFF" >
            </path>
            <path d="M143.172 451.714C122.456 450.901 99.8125 461.008 92.6069 480.429L225.206 481.989C217.237 478.711 209.441 474.86 201.756 471.057C183.19 461.869 163.888 452.526 143.172 451.714ZM260.272 490.719C274.782 491.43 288.567 488.026 302.08 482.893L225.206 481.989C236.486 486.629 248.115 490.124 260.272 490.719ZM576.841 485.777C576.569 485.893 576.295 486.006 576.021 486.117L785.892 488.586C764.424 484.584 743.034 477.75 722.057 471.782C681.361 460.205 635.377 452.313 598.574 473.204C591.282 477.314 584.589 482.498 576.841 485.777ZM785.892 488.586C806.071 492.348 826.32 493.609 846.362 489.297L785.892 488.586ZM518.545 485.44C528.374 488.131 538.343 489.944 548.532 490.284C557.863 490.593 567.376 489.603 576.021 486.117L518.545 485.44ZM390.882 449.402C359.482 452.442 331.425 471.746 302.08 482.893L518.545 485.44C475.561 473.672 435.252 445.104 390.882 449.402Z" fill-rule="evenodd"  fill="#4D8AF0" >
            </path>
            <path d="M209.466 520.345L425.959 522.895C382.967 511.13 342.652 482.552 298.275 486.851C266.873 489.891 238.814 509.198 209.466 520.345ZM455.926 527.733C465.251 528.042 474.758 527.053 483.399 523.571L425.959 522.895C435.781 525.583 445.743 527.393 455.926 527.733ZM484.234 523.226C483.957 523.344 483.678 523.459 483.399 523.571L693.307 526.044C671.832 522.04 650.435 515.201 629.45 509.231C588.754 497.654 542.77 489.762 505.967 510.653C498.675 514.763 491.982 519.947 484.234 523.226ZM209.466 520.345L132.603 519.439C143.882 524.079 155.509 527.573 167.665 528.168C182.173 528.878 195.956 525.476 209.466 520.345ZM50.5648 489.162C29.8488 488.35 7.20555 498.457 0 517.877L132.603 519.439C124.633 516.161 116.836 512.31 109.149 508.506C90.5827 499.318 71.2807 489.975 50.5648 489.162ZM693.307 526.044C713.479 529.805 733.721 531.066 753.755 526.756L693.307 526.044Z" fill-rule="evenodd"  fill="#4D8AF0" >
            </path>
            <path d="M308.18 568.495L231.34 567.588C242.616 572.226 254.24 575.718 266.392 576.313C280.895 577.023 294.674 573.624 308.18 568.495ZM524.647 571.05C481.674 559.281 441.349 530.715 397.003 534.996C365.596 538.036 337.533 557.349 308.18 568.495L524.647 571.05ZM582.962 571.39C582.69 571.506 582.417 571.619 582.144 571.729L792.026 574.207C770.554 570.202 749.159 563.364 728.177 557.395C687.482 545.818 641.498 537.926 604.695 558.817C597.402 562.928 590.71 568.112 582.962 571.39ZM149.293 537.307C128.577 536.495 105.933 546.602 98.7278 566.022L231.34 567.588C223.366 564.309 215.566 560.456 207.876 556.651C189.311 547.463 170.009 538.12 149.293 537.307ZM792.026 574.207C812.201 577.969 832.445 579.231 852.483 574.92L792.026 574.207ZM524.647 571.05C534.484 573.744 544.459 575.559 554.653 575.897C563.985 576.207 573.498 575.216 582.144 571.729L524.647 571.05Z" fill-rule="evenodd"  fill="#4D8AF0" >
            </path>
            <path d="M842.552 621.58C862.724 625.341 882.965 626.602 903 622.292L842.552 621.58ZM778.694 604.767C737.998 593.19 692.015 585.298 655.212 606.189C647.919 610.299 641.227 615.483 633.479 618.762C633.202 618.88 632.923 618.995 632.644 619.107L842.552 621.58C821.076 617.576 799.679 610.737 778.694 604.767ZM575.204 618.431C585.026 621.119 594.988 622.929 605.17 623.269C614.496 623.578 624.003 622.589 632.644 619.107L575.204 618.431ZM447.52 582.387C416.118 585.427 388.058 604.734 358.711 615.881L575.204 618.431C532.212 606.666 491.897 578.088 447.52 582.387ZM281.848 614.975C293.127 619.615 304.754 623.109 316.909 623.704C331.417 624.414 345.2 621.012 358.711 615.881L281.848 614.975ZM258.393 604.042C239.827 594.853 220.525 585.511 199.809 584.698C179.093 583.886 156.45 593.993 149.245 613.413L281.848 614.975C273.877 611.697 266.081 607.846 258.393 604.042Z" fill-rule="evenodd"  fill="#4D8AF0" >
            </path>
            <g  opacity="0.5">
                <path d="M227.827 64.4127L226.045 70.9604C240.001 74.7516 249.928 89.8007 248.795 104.095C248.433 105.713 248.165 107.35 247.991 108.999L254.664 110.179C255.078 108.536 255.369 106.865 255.536 105.179C259.013 90.7001 271.448 78.2334 286.072 75.3319L284.726 68.6778C271.844 71.4566 260.722 79.5102 254.073 90.8742C250.345 78.4945 240.544 67.8654 227.827 64.4127Z"   fill="url(#linear_fill_29_1466)" >
                </path>
            </g>
            <path d="M254.393 90.4004C251.216 79.8293 242.829 70.7477 231.963 67.7881L230.433 73.388C242.364 76.628 250.848 89.4913 249.88 101.707C249.57 103.088 249.341 104.486 249.192 105.894L254.897 106.862C255.224 105.455 255.448 104.026 255.565 102.587C258.577 90.207 269.211 79.5875 281.714 77.0729L280.562 71.386C269.555 73.7788 260.06 80.6779 254.393 90.4004Z"   fill="#706A6A" >
            </path>
            <g  opacity="0.5">
                <path d="M393.217 48.0967L397.526 48.8608C397.797 47.7996 397.988 46.7199 398.098 45.6305C400.364 36.2973 408.364 28.3183 417.797 26.3839L416.925 22.0897C408.615 23.8805 401.439 29.074 397.149 36.4037C394.747 28.415 388.422 21.5675 380.219 19.3333L379.067 23.5598C388.064 26.0067 394.466 35.717 393.74 44.9341C393.504 45.9774 393.33 47.0333 393.217 48.0967Z"   fill="url(#linear_fill_29_1469)" >
                </path>
            </g>
            <g  opacity="0.5">
                <path d="M656.199 25.5911C655.964 26.6344 655.79 27.6903 655.676 28.7537L659.986 29.5178C660.256 28.4566 660.448 27.3768 660.558 26.2874C662.824 16.9543 670.824 8.97523 680.257 7.04091L679.385 2.74671C671.075 4.53747 663.899 9.73102 659.609 17.0607C657.207 9.07195 650.882 2.22444 642.679 -0.00970459L641.527 4.21679C650.524 6.66372 656.926 16.374 656.199 25.5911Z"   fill="url(#linear_fill_29_1471)" >
                </path>
            </g>
            <path d="M397.594 35.6109C396.053 30.2862 391.909 26.1078 386.592 24.5176L385.846 27.2643C391.696 28.8601 395.861 35.1564 395.386 41.1528C395.234 41.8292 395.121 42.5138 395.047 43.2032L397.846 43.6964C398.027 43.0074 398.156 42.3059 398.233 41.5977C399.805 35.3662 404.738 30.5377 411.008 29.0923L410.446 26.3068C405.045 27.471 400.382 30.8469 397.594 35.6109Z"   fill="#706A6A" >
            </path>
            <path d="M657.846 21.8098C657.694 22.4861 657.581 23.1707 657.507 23.8601L660.306 24.3534C660.487 23.6644 660.616 22.9628 660.693 22.2546C662.265 16.0232 667.198 11.1947 673.468 9.74924L672.906 6.96381C667.505 8.12799 662.842 11.5039 660.054 16.2679C658.513 10.9432 654.369 6.76474 649.052 5.17456L648.306 7.9213C654.156 9.51712 658.321 15.8133 657.846 21.8098Z"   fill="#706A6A" >
            </path>
            <g  opacity="0.5">
                <path d="M134.019 9.36194C98.1823 9.36194 69.1306 38.3738 69.1306 74.1618C69.1306 109.95 98.1823 138.962 134.019 138.962C169.856 138.962 198.908 109.95 198.908 74.1618C198.908 38.3738 169.856 9.36194 134.019 9.36194Z"   fill="url(#linear_fill_29_1475)" >
                </path>
            </g>
            <path d="M134.019 14.1984C100.857 14.1984 73.9729 41.0452 73.9729 74.1624C73.9729 107.28 100.857 134.127 134.019 134.127C167.182 134.127 194.065 107.28 194.065 74.1624C194.065 41.0452 167.182 14.1984 134.019 14.1984Z"   fill="#FDD835" >
            </path>
        </g>
    </g>
    <defs>
        <clipPath id="clip-path-29_1385">
            <path d="M0 625L902 625L902 0L0 0L0 625Z" fill="white"/>
        </clipPath>
        <clipPath id="clip-path-29_1386">
            <path d="M0 625L903 625L903 0L0 0L0 625Z" fill="white"/>
        </clipPath>
        <linearGradient id="linear_fill_29_1388" x1="174295.078125" y1="48174.8203125" x2="174295.078125" y2="30553.5078125" gradientUnits="userSpaceOnUse">
            <stop offset="0" stop-color="#808080" stop-opacity="0.25" />
            <stop offset="0.54" stop-color="#808080" stop-opacity="0.12" />
            <stop offset="1" stop-color="#808080" stop-opacity="0.1" />
        </linearGradient>
        <linearGradient id="linear_fill_29_1425" x1="452406.46875" y1="106171.6875" x2="452406.46875" y2="76667.328125" gradientUnits="userSpaceOnUse">
            <stop offset="0" stop-color="#808080" stop-opacity="0.25" />
            <stop offset="0.54" stop-color="#808080" stop-opacity="0.12" />
            <stop offset="1" stop-color="#808080" stop-opacity="0.1" />
        </linearGradient>
        <linearGradient id="linear_fill_29_1428_0" x1="44581.69140625" y1="8591.8564453125" x2="44581.69140625" y2="8186.5947265625" gradientUnits="userSpaceOnUse">
            <stop offset="0" stop-color="#808080" stop-opacity="0.25" />
            <stop offset="0.54" stop-color="#808080" stop-opacity="0.12" />
            <stop offset="1" stop-color="#808080" stop-opacity="0.1" />
        </linearGradient>
        <linearGradient id="linear_fill_29_1431_0" x1="17156.056640625" y1="9027.751953125" x2="17156.056640625" y2="8579.224609375" gradientUnits="userSpaceOnUse">
            <stop offset="0" stop-color="#808080" stop-opacity="0.25" />
            <stop offset="0.54" stop-color="#808080" stop-opacity="0.12" />
            <stop offset="1" stop-color="#808080" stop-opacity="0.1" />
        </linearGradient>
        <linearGradient id="linear_fill_29_1434" x1="142967.6875" y1="103235.53125" x2="142967.6875" y2="21717.576171875" gradientUnits="userSpaceOnUse">
            <stop offset="0" stop-color="#808080" stop-opacity="0.25" />
            <stop offset="0.54" stop-color="#808080" stop-opacity="0.12" />
            <stop offset="1" stop-color="#808080" stop-opacity="0.1" />
        </linearGradient>
        <linearGradient id="linear_fill_29_1450" x1="2796.7344360351562" y1="8927.9951171875" x2="2796.7344360351562" y2="8374.3857421875" gradientUnits="userSpaceOnUse">
            <stop offset="0" stop-color="#808080" stop-opacity="0.25" />
            <stop offset="0.54" stop-color="#808080" stop-opacity="0.12" />
            <stop offset="1" stop-color="#808080" stop-opacity="0.1" />
        </linearGradient>
        <linearGradient id="linear_fill_29_1452" x1="4067.186767578125" y1="8927.9951171875" x2="4067.186767578125" y2="8374.3857421875" gradientUnits="userSpaceOnUse">
            <stop offset="0" stop-color="#808080" stop-opacity="0.25" />
            <stop offset="0.54" stop-color="#808080" stop-opacity="0.12" />
            <stop offset="1" stop-color="#808080" stop-opacity="0.1" />
        </linearGradient>
        <linearGradient id="linear_fill_29_1454" x1="5337.63818359375" y1="8927.9951171875" x2="5337.63818359375" y2="8374.3857421875" gradientUnits="userSpaceOnUse">
            <stop offset="0" stop-color="#808080" stop-opacity="0.25" />
            <stop offset="0.54" stop-color="#808080" stop-opacity="0.12" />
            <stop offset="1" stop-color="#808080" stop-opacity="0.1" />
        </linearGradient>
        <linearGradient id="linear_fill_29_1456" x1="6608.08740234375" y1="8927.9951171875" x2="6608.08740234375" y2="8374.3857421875" gradientUnits="userSpaceOnUse">
            <stop offset="0" stop-color="#808080" stop-opacity="0.25" />
            <stop offset="0.54" stop-color="#808080" stop-opacity="0.12" />
            <stop offset="1" stop-color="#808080" stop-opacity="0.1" />
        </linearGradient>
        <linearGradient id="linear_fill_29_1466" x1="24128.763671875" y1="11085.357421875" x2="24128.763671875" y2="8919.703125" gradientUnits="userSpaceOnUse">
            <stop offset="0" stop-color="#808080" stop-opacity="0.25" />
            <stop offset="0.54" stop-color="#808080" stop-opacity="0.12" />
            <stop offset="1" stop-color="#808080" stop-opacity="0.1" />
        </linearGradient>
        <linearGradient id="linear_fill_29_1469" x1="21494.58984375" y1="5257.80126953125" x2="21494.58984375" y2="4356.623046875" gradientUnits="userSpaceOnUse">
            <stop offset="0" stop-color="#808080" stop-opacity="0.25" />
            <stop offset="0.54" stop-color="#808080" stop-opacity="0.12" />
            <stop offset="1" stop-color="#808080" stop-opacity="0.1" />
        </linearGradient>
        <linearGradient id="linear_fill_29_1471" x1="32252.841796875" y1="4647.90869140625" x2="32252.841796875" y2="3746.73046875" gradientUnits="userSpaceOnUse">
            <stop offset="0" stop-color="#808080" stop-opacity="0.25" />
            <stop offset="0.54" stop-color="#808080" stop-opacity="0.12" />
            <stop offset="1" stop-color="#808080" stop-opacity="0.1" />
        </linearGradient>
        <linearGradient id="linear_fill_29_1475" x1="18027.732421875" y1="18630.25390625" x2="18027.732421875" y2="1263.8875732421875" gradientUnits="userSpaceOnUse">
            <stop offset="0" stop-color="#808080" stop-opacity="0.25" />
            <stop offset="0.54" stop-color="#808080" stop-opacity="0.12" />
            <stop offset="1" stop-color="#808080" stop-opacity="0.1" />
        </linearGradient>
    </defs>
</svg>
