<svg xmlns="http://www.w3.org/2000/svg" xmlns:xlink="http://www.w3.org/1999/xlink" width="32" height="32" viewBox="0 0 32 32" fill="none">
<rect  x="0" y="0" width="32" height="31.999984741210938" rx="10"    fill="#6C5DD3" >
</rect>
<path d="M7.25 7.5C7.25 6.80964 7.80964 6.25 8.5 6.25L23.5 6.25C24.1904 6.25 24.75 6.80964 24.75 7.5L24.75 23.8981C24.75 24.9721 23.4851 25.546 22.6769 24.8388L16 18.9966L9.32313 24.8388C8.5149 25.546 7.25 24.9721 7.25 23.8981L7.25 7.5ZM8.75 7.75L8.75 23.3472L15.1769 17.7237C15.6482 17.3113 16.3518 17.3113 16.8231 17.7237L23.25 23.3472L23.25 7.75L8.75 7.75Z" fill-rule="evenodd"  fill="#FFFFFF" >
</path>
</svg>
