<svg xmlns="http://www.w3.org/2000/svg" xmlns:xlink="http://www.w3.org/1999/xlink" width="56" height="56" viewBox="0 0 56 56" fill="none">
<rect  x="0" y="0" width="55.999977111816406" height="56" rx="12"    fill="#F7F7F7" >
</rect>
<path   fill-rule="evenodd"  fill="#000000"  d="M25.5 18C28.884 18 31.748 20.24 32.68 23.32C35.81 24.268 38 27.168 38 30.5C38 31.79 37.672 33.038 37.06 34.14L37.98 37.36C38.088 37.738 37.738 38.088 37.36 37.98L34.14 37.06C33.038 37.672 31.792 38 30.5 38C27.172 38 24.27 35.814 23.32 32.68C22.812 32.526 22.324 32.318 21.86 32.06L18.64 32.98C18.262 33.088 17.912 32.738 18.02 32.36L18.94 29.14C18.328 28.038 18 26.792 18 25.5C18 21.358 21.358 18 25.5 18ZM25.5 19C29.0893 19 32 21.9107 32 25.5C32 29.0893 29.0893 32 25.5 32C24.3157 32 23.1758 31.6815 22.18 31.09C22.0617 31.0198 21.9226 31.001 21.79 31.04L19.23 31.77L19.96 29.21C19.999 29.0774 19.9802 28.9383 19.91 28.82C19.3185 27.8242 19 26.6843 19 25.5C19 21.9107 21.9107 19 25.5 19ZM36.9997 30.5C36.9997 27.8086 35.3492 25.4436 32.9297 24.47C32.9761 24.8071 32.9997 25.1504 32.9997 25.5C32.9997 29.6412 29.6409 33 25.4997 33C25.1514 33 24.8093 32.9764 24.4697 32.93C25.4445 35.3521 27.8108 37 30.4997 37C31.6838 37 32.8248 36.6814 33.8197 36.09C33.9387 36.0186 34.0769 36.0024 34.2097 36.04L36.7697 36.77L36.0397 34.21C36.0021 34.0772 36.0183 33.939 36.0897 33.82C36.6811 32.8251 36.9997 31.6841 36.9997 30.5Z">
</path>
</svg>
