<svg xmlns="http://www.w3.org/2000/svg" xmlns:xlink="http://www.w3.org/1999/xlink" width="56" height="56" viewBox="0 0 56 56" fill="none">
<rect  x="0" y="0" width="55.999977111816406" height="56" rx="12"    fill="#F7F7F7" >
</rect>
<path d="M25.846 19.822C26.273 18.7953 27.7273 18.7953 28.1543 19.822L30.1618 24.6485L35.3724 25.0662C36.4807 25.155 36.9301 26.5382 36.0857 27.2615L32.1157 30.6622L33.3286 35.7468C33.5866 36.8284 32.41 37.6832 31.4612 37.1036L27.0002 34.3789L22.5392 37.1036C21.5903 37.6832 20.4137 36.8284 20.6717 35.7468L21.8846 30.6622L17.9146 27.2615C17.0702 26.5382 17.5196 25.155 18.628 25.0662L23.8386 24.6485L25.846 19.822ZM27.0002 20.953L25.1649 25.3655C24.9849 25.7983 24.5779 26.094 24.1106 26.1315L19.347 26.5134L22.9764 29.6223C23.3324 29.9273 23.4878 30.4057 23.3791 30.8617L22.2702 35.5102L26.3486 33.0192C26.7486 32.7748 27.2517 32.7748 27.6517 33.0192L31.7301 35.5102L30.6212 30.8617C30.5125 30.4057 30.6679 29.9273 31.0239 29.6223L34.6533 26.5134L29.8897 26.1315C29.4224 26.094 29.0154 25.7983 28.8354 25.3655L27.0002 20.953Z" fill-rule="evenodd"  fill="#6C5DD3" >
</path>
</svg>
