<svg xmlns="http://www.w3.org/2000/svg" xmlns:xlink="http://www.w3.org/1999/xlink" width="30" height="30" viewBox="0 0 30 30" fill="none">
<g  clip-path="url(#clip-path-NokAnFI6CbttYrGtilqI7)">
<path d="M27.4126 15.075C26.9438 14.025 26.3063 13.0688 25.4813 12.2438C24.6188 11.3813 23.6251 10.7063 22.5001 10.2563C21.3751 9.7875 20.1938 9.5625 18.9751 9.5625C17.7563 9.5625 16.5751 9.80625 15.4501 10.2563C14.3251 10.725 13.3313 11.4 12.4688 12.2438C11.6438 13.0688 11.0063 14.0063 10.5376 15.075L10.4438 15.1875L5.98135 10.725C5.68135 10.425 5.2126 10.425 4.9126 10.725C3.20635 12.4313 2.2876 14.6813 2.2876 17.0813C2.2876 19.4813 3.2251 21.7313 4.9126 23.4375C6.39385 24.9188 8.30635 25.8188 10.3688 26.025C10.4251 26.0438 10.4626 26.0438 10.5188 26.0438L10.5563 26.0438C10.7813 26.0625 11.0251 26.0813 11.2688 26.0813C12.6188 26.0813 13.9126 25.7813 15.0938 25.2375C15.2063 25.2938 15.3376 25.35 15.4501 25.3875C16.5563 25.8563 17.7563 26.0813 18.9751 26.0813C20.1938 26.0813 21.3751 25.8375 22.5001 25.3875C23.6251 24.9188 24.6188 24.2438 25.4813 23.4C26.3063 22.575 26.9438 21.6375 27.4126 20.5688L29.7751 18.3563C29.9251 18.2062 30.0188 18.0187 30.0188 17.8125C30.0188 17.6063 29.9251 17.4 29.7751 17.2688L27.4126 15.075ZM3.9376 18.5625L5.8501 18.5625C6.2626 18.5625 6.6001 18.225 6.6001 17.8125C6.6001 17.4 6.2626 17.0625 5.8501 17.0625L3.7876 17.0625C3.7876 15.3188 4.3876 13.6688 5.4751 12.3375L9.88135 16.7438L16.0126 22.875L15.7313 23.1C15.7126 23.1188 15.6938 23.1188 15.6938 23.1375C15.6188 23.1938 15.5251 23.25 15.4313 23.325C15.4126 23.3438 15.3938 23.3438 15.3751 23.3625C15.2813 23.4188 15.2063 23.475 15.1126 23.5312C15.0938 23.5312 15.0938 23.55 15.0751 23.55C14.9813 23.6063 14.8688 23.6625 14.7563 23.7188C13.7063 24.2812 12.5251 24.5625 11.2876 24.5813L11.2876 22.5187C11.2876 22.1063 10.9501 21.7687 10.5376 21.7687C10.1251 21.7687 9.7876 22.1063 9.7876 22.5187L9.7876 24.4313C8.5876 24.1875 7.48135 23.6625 6.54385 22.8937L8.26885 21.1688C8.56885 20.8688 8.56885 20.4 8.26885 20.1C7.96885 19.8 7.5001 19.8 7.2001 20.1L5.4751 21.825C4.70635 20.8688 4.18135 19.7625 3.9376 18.5625ZM26.2876 19.5375C26.1938 19.6125 26.1376 19.7063 26.0813 19.8188C25.6876 20.7563 25.1251 21.6 24.4126 22.3125C23.7001 23.025 22.8563 23.5875 21.9188 23.9813C20.9813 24.375 19.9876 24.5625 18.9751 24.5625C18.2063 24.5625 17.4376 24.45 16.7251 24.225L16.7813 24.1688L17.1188 23.8875C17.1563 23.85 17.1938 23.8313 17.2313 23.7938C17.3626 23.6813 17.4938 23.55 17.6251 23.4188C17.6813 23.3625 17.7188 23.3063 17.7376 23.25C17.7938 23.1375 17.8313 23.0063 17.8313 22.8937L17.8313 22.8188L17.8313 22.7625L17.8313 22.7438C17.7938 22.6125 17.7376 22.4813 17.6251 22.3688L11.5126 16.2375L11.7001 16.0688C11.7751 15.9937 11.8501 15.9 11.8876 15.8062C12.2813 14.8688 12.8438 14.025 13.5563 13.3125C14.2688 12.6 15.1126 12.0375 16.0501 11.6438C16.9876 11.25 17.9813 11.0625 18.9938 11.0625C20.0063 11.0625 21.0001 11.25 21.9376 11.6438C22.8751 12.0375 23.7188 12.6 24.4313 13.3125C25.1438 14.025 25.7063 14.8688 26.1001 15.8062C26.1376 15.9 26.2126 15.9937 26.2876 16.0688L28.1626 17.7938L26.2876 19.5375Z"   fill="#8F95B2" >
</path>
</g>
<defs>
<clipPath id="clip-path-NokAnFI6CbttYrGtilqI7">
<path d="M0 30L30 30L30 0L0 0L0 30Z" fill="white"/>
</clipPath>
</defs>
</svg>
