<svg xmlns="http://www.w3.org/2000/svg" xmlns:xlink="http://www.w3.org/1999/xlink" width="30" height="30" viewBox="0 0 30 30" fill="none">
<path d="M14.9998 26.0626C16.0498 26.0626 17.0811 25.9126 18.0748 25.6313L18.0936 25.6313C18.1873 25.6126 18.2811 25.5751 18.3748 25.5376C18.3936 25.5376 18.4311 25.5188 18.4498 25.5188C22.9873 24.0188 26.0436 19.8001 26.0436 15.0188C26.0436 13.8376 25.8561 12.6751 25.4811 11.5501C25.4061 11.3251 25.2373 11.1563 25.0123 11.0813C24.1311 10.7813 23.2123 10.6126 22.2936 10.5563C22.2936 10.4626 22.3123 10.3688 22.3123 10.2751C22.3123 9.39385 22.1623 8.5126 21.8998 7.66885C21.8248 7.44385 21.6561 7.2751 21.4311 7.2001C20.5873 6.91885 19.7061 6.7876 18.8248 6.7876C17.4936 6.7876 16.1811 7.10635 14.9998 7.7251C13.8373 7.1251 12.5436 6.7876 11.1936 6.7876C10.3123 6.7876 9.43106 6.9376 8.58731 7.2001C8.36231 7.2751 8.19357 7.44385 8.11856 7.66885C7.83731 8.5126 7.70606 9.39385 7.70606 10.2751C7.70606 10.3688 7.70606 10.4626 7.72481 10.5563C6.80607 10.6126 5.88732 10.8001 5.00607 11.0813C4.78107 11.1563 4.61232 11.3251 4.53732 11.5501C4.16232 12.6751 3.97482 13.8376 3.97482 15.0188C3.93732 21.0938 8.90606 26.0626 14.9998 26.0626ZM24.5623 15.0001C24.5623 18.6563 22.4998 21.9188 19.3311 23.5313C19.3311 23.4938 19.3498 23.4751 19.3498 23.4376C19.3686 23.3438 19.3873 23.2501 19.3873 23.1563C19.3873 23.1001 19.4061 23.0251 19.4061 22.9688C19.4248 22.8751 19.4248 22.7813 19.4436 22.6876C19.4436 22.6313 19.4623 22.5751 19.4623 22.5001C19.4623 22.3876 19.4811 22.2938 19.4811 22.1813L19.4811 22.0313C19.4811 21.8813 19.4998 21.7126 19.4998 21.5626C19.4998 21.3751 19.4998 21.1876 19.4811 21.0001C19.4811 20.9251 19.4623 20.8688 19.4623 20.7938C19.4623 20.6813 19.4436 20.5501 19.4436 20.4376C19.4436 20.3813 19.4248 20.3063 19.4248 20.2501C19.4061 20.1376 19.4061 20.0063 19.3873 19.8938C19.3873 19.8563 19.3686 19.8188 19.3686 19.7813C18.9936 17.4563 17.8873 15.3188 16.1998 13.6688C17.3623 12.8813 18.6936 12.3563 20.0811 12.1313C20.1186 12.1313 20.1561 12.1126 20.1936 12.1126C20.2686 12.0938 20.3248 12.0938 20.3998 12.0938C20.4748 12.0938 20.5498 12.0751 20.6061 12.0751C20.6436 12.0751 20.6998 12.0751 20.7373 12.0563C20.8311 12.0563 20.9436 12.0376 21.0373 12.0376L21.0936 12.0376C21.2248 12.0376 21.3561 12.0188 21.4873 12.0188L21.5436 12.0188C22.4436 12.0188 23.3248 12.1501 24.1686 12.3938C24.4311 13.2188 24.5623 14.1001 24.5623 15.0001ZM20.5873 8.4751C20.7373 9.05635 20.8123 9.6376 20.8123 10.2376L20.8123 10.5188L20.7561 10.5188C20.6248 10.5376 20.4748 10.5376 20.3436 10.5563C20.2873 10.5563 20.2311 10.5751 20.1748 10.5751C20.0061 10.5938 19.8373 10.6126 19.6873 10.6501C19.5748 10.6688 19.4623 10.6876 19.3498 10.7251C19.2936 10.7438 19.2373 10.7438 19.1811 10.7626C19.0498 10.7813 18.9373 10.8188 18.8061 10.8563C18.7686 10.8751 18.7311 10.8751 18.6936 10.8938C18.6186 10.9126 18.5248 10.9313 18.4498 10.9688C18.4311 10.9313 18.4123 10.9126 18.3936 10.8751C18.3561 10.8188 18.3373 10.7813 18.2998 10.7251C18.2623 10.6688 18.2248 10.6126 18.2061 10.5563C18.1873 10.5188 18.1686 10.5001 18.1498 10.4626C17.6998 9.7876 17.1561 9.1876 16.5373 8.6626C17.7936 8.19385 19.2373 8.11885 20.5873 8.4751ZM9.41232 8.4751C9.99356 8.3251 10.5748 8.2501 11.1748 8.2501C12.4686 8.2501 13.7061 8.6251 14.7561 9.28135C14.8123 9.31885 14.8873 9.35635 14.9436 9.39385C15.0186 9.4501 15.0936 9.4876 15.1498 9.54385C15.2061 9.58135 15.2623 9.61885 15.3186 9.6751C15.3936 9.73135 15.4686 9.7876 15.5248 9.84385C15.5623 9.88135 15.6186 9.91885 15.6561 9.95635C15.8998 10.1813 16.1436 10.4063 16.3686 10.6688C16.4061 10.7251 16.4436 10.7626 16.4811 10.8188C16.5373 10.8938 16.5936 10.9501 16.6311 11.0251C16.6686 11.0813 16.7248 11.1563 16.7623 11.2126C16.7998 11.2688 16.8561 11.3438 16.8936 11.4001C16.9123 11.4376 16.9311 11.4751 16.9498 11.4938C16.6686 11.6251 16.4061 11.7563 16.1436 11.9063L16.0311 11.9626L15.7498 12.1313C15.6936 12.1688 15.6186 12.2063 15.5623 12.2438C15.4873 12.3001 15.4123 12.3376 15.3373 12.3938C15.2623 12.4501 15.1873 12.5063 15.0936 12.5626C15.0561 12.6001 14.9998 12.6188 14.9623 12.6563C14.4186 12.2626 13.8373 11.9063 13.2373 11.6251C13.1811 11.6063 13.1248 11.5688 13.0686 11.5501L12.8436 11.4376C12.7686 11.4001 12.6748 11.3626 12.5998 11.3251C12.5623 11.3063 12.5436 11.3063 12.5061 11.2876C11.8123 11.0063 11.0998 10.8001 10.3498 10.6688L10.3123 10.6688C9.97482 10.6126 9.63731 10.5751 9.28106 10.5376C9.24356 10.5376 9.20606 10.5376 9.14981 10.5188L9.14981 10.2376C9.18731 9.65635 9.26231 9.05635 9.41232 8.4751ZM5.81232 12.3751C6.67482 12.1313 7.55606 12.0001 8.43731 12.0001L8.49356 12.0001C8.90606 12.0001 9.29981 12.0376 9.69357 12.0938L9.71231 12.0938L10.1061 12.1501L10.1248 12.1501C10.7998 12.2626 11.4373 12.4688 12.0748 12.7126C12.1686 12.7501 12.2436 12.7876 12.3373 12.8251C12.3936 12.8438 12.4498 12.8813 12.5061 12.9001C12.5623 12.9188 12.6186 12.9563 12.6748 12.9938C12.7686 13.0313 12.8436 13.0876 12.9373 13.1251C12.9748 13.1438 13.0123 13.1626 13.0311 13.1813C13.1436 13.2376 13.2561 13.3126 13.3873 13.3876C15.2061 14.4938 16.6311 16.2001 17.3811 18.2063C17.3998 18.2438 17.3998 18.2813 17.4186 18.3188C17.4561 18.4313 17.4936 18.5251 17.5311 18.6376L17.5873 18.8063C17.6061 18.9001 17.6436 18.9938 17.6623 19.0876L17.7186 19.3126C17.7373 19.3876 17.7561 19.4813 17.7748 19.5751C17.7936 19.6688 17.8123 19.7438 17.8311 19.8376C17.8498 19.9126 17.8686 19.9876 17.8686 20.0626C17.8873 20.1563 17.9061 20.2501 17.9061 20.3626C17.9061 20.4376 17.9248 20.4938 17.9248 20.5688C17.9436 20.6813 17.9436 20.7938 17.9623 20.9063C17.9623 20.9626 17.9811 21.0188 17.9811 21.0751C17.9811 21.2438 17.9998 21.4126 17.9998 21.5813C17.9998 22.2563 17.9248 22.9126 17.7936 23.5688C17.7936 23.5876 17.7748 23.6251 17.7748 23.6438C14.0998 23.6251 11.0998 20.6251 11.0998 16.9313C11.0998 16.5188 10.7623 16.1813 10.3498 16.1813C9.93731 16.1813 9.59982 16.5188 9.59982 16.9313C9.59982 20.4001 11.7561 23.3813 14.8123 24.5626C9.61856 24.4688 5.43732 20.2126 5.43732 15.0001C5.43732 14.1001 5.56857 13.2188 5.81232 12.3751Z"   fill="#8F95B2" >
</path>
</svg>
