<svg xmlns="http://www.w3.org/2000/svg" xmlns:xlink="http://www.w3.org/1999/xlink" width="30" height="30" viewBox="0 0 30 30" fill="none">
<path d="M11.4377 9.3751C11.4377 11.9626 10.6502 12.7501 9.8252 13.5751C9.1502 14.2501 8.60645 15.0563 8.23145 15.9376C7.85644 16.8188 7.66895 17.7751 7.66895 18.7313C7.66895 19.7063 7.85644 20.6438 8.23145 21.5251C8.60645 22.4063 9.13144 23.2126 9.8252 23.8876C10.5002 24.5626 11.3064 25.1063 12.2064 25.4813C13.0877 25.8563 14.0439 26.0438 15.0002 26.0438C15.9564 26.0438 16.9127 25.8563 17.7939 25.4813C18.6752 25.1063 19.4814 24.5813 20.1564 23.8876C20.8314 23.2126 21.3752 22.4063 21.7502 21.5251C22.1252 20.6438 22.3127 19.6876 22.3127 18.7313C22.3127 17.7563 22.1252 16.8188 21.7502 15.9376C21.3752 15.0563 20.8502 14.2501 20.1564 13.5751C19.3502 12.7501 18.5627 11.9626 18.5627 9.3751C18.5627 7.6501 17.3252 6.20635 15.6939 5.8876C15.7314 5.8126 15.7502 5.71885 15.7502 5.6251L15.7502 3.7501C15.7502 3.46885 15.8064 3.20635 15.9002 2.9626C16.0127 2.71885 16.1627 2.49385 16.3502 2.2876C16.5377 2.1001 16.7627 1.9501 17.0252 1.8376C17.5314 1.63135 18.1127 1.63135 18.6002 1.8376C18.8439 1.9501 19.0689 2.1001 19.2752 2.2876C19.4252 2.4376 19.5564 2.6251 19.6502 2.8126C19.5564 3.0001 19.4252 3.1876 19.2752 3.3376C19.0877 3.5251 18.8627 3.6751 18.6002 3.7876C18.3564 3.88135 18.0939 3.9376 17.8127 3.9376C17.4002 3.9376 17.0627 4.2751 17.0627 4.6876C17.0627 5.1001 17.4002 5.4376 17.8127 5.4376C18.2814 5.4376 18.7502 5.34385 19.1814 5.1751C19.6127 4.9876 20.0064 4.74385 20.3439 4.40635C20.6814 4.06885 20.9439 3.6751 21.1127 3.24385C21.1502 3.1501 21.1689 3.05635 21.1689 2.9626L21.1689 2.68135C21.1689 2.5876 21.1502 2.4751 21.1127 2.4001C20.9252 1.96885 20.6814 1.5751 20.3439 1.2376C20.0064 0.900098 19.6314 0.637598 19.1814 0.468848C18.3189 0.112598 17.3252 0.112598 16.4439 0.468848C16.0127 0.656348 15.6189 0.900098 15.2814 1.2376C14.9439 1.5751 14.6814 1.96885 14.5127 2.4001C14.3439 2.8126 14.2502 3.28135 14.2502 3.7501L14.2502 5.6251C14.2502 5.71885 14.2689 5.79385 14.3064 5.8876C12.6752 6.20635 11.4377 7.6501 11.4377 9.3751ZM15.0002 7.3126C16.1439 7.3126 17.0627 8.23135 17.0627 9.3751C17.0627 12.3563 17.9814 13.5188 19.1064 14.6438C19.6502 15.1876 20.0814 15.8251 20.3627 16.5376C20.6627 17.2501 20.8127 18.0001 20.8127 18.7688C20.8127 19.5376 20.6627 20.2876 20.3814 21.0001C20.0814 21.7126 19.6689 22.3501 19.1252 22.8938C18.5814 23.4376 17.9439 23.8688 17.2314 24.1501C16.5189 24.4501 15.7689 24.6001 15.0002 24.6001C14.2314 24.6001 13.4814 24.4501 12.7689 24.1501C12.0564 23.8501 11.4189 23.4376 10.8752 22.8938C10.3314 22.3501 9.9002 21.7126 9.61895 21.0001C9.31894 20.2876 9.1877 19.5376 9.16895 18.7688C9.16895 18.0001 9.31894 17.2501 9.61895 16.5376C9.91895 15.8251 10.3314 15.1876 10.8752 14.6438C12.0002 13.5188 12.9189 12.3563 12.9189 9.3751C12.9377 8.23135 13.8564 7.3126 15.0002 7.3126Z"   fill="#8F95B2" >
</path>
</svg>
