<svg xmlns="http://www.w3.org/2000/svg" xmlns:xlink="http://www.w3.org/1999/xlink" width="30" height="30" viewBox="0 0 30 30" fill="none">
<path d="M7.6877 15.4688C7.6877 18.1125 9.1502 20.4188 11.3252 21.6375C11.3064 21.6938 11.3064 21.75 11.3064 21.8063L11.3064 25.425C11.3064 25.8188 11.6252 26.1563 12.0377 26.1563C12.4314 26.1563 12.7689 25.8375 12.7689 25.425L12.7689 22.2375C13.1814 22.35 13.5939 22.4438 14.0252 22.4813L14.0252 27.225C14.0252 27.6188 14.3439 27.9563 14.7564 27.9563C15.1502 27.9563 15.4877 27.6375 15.4877 27.225L15.4877 22.4813C15.9189 22.4438 16.3502 22.35 16.7439 22.2375L16.7439 25.425C16.7439 25.8188 17.0627 26.1563 17.4752 26.1563C17.8689 26.1563 18.2064 25.8375 18.2064 25.425L18.2064 21.8063C18.2064 21.75 18.2064 21.6938 18.1877 21.6375C20.3439 20.4375 21.8252 18.1313 21.8252 15.4688C21.8252 15.075 21.5064 14.7375 21.0939 14.7375C20.7002 14.7375 20.3064 14.775 19.9314 14.8313C21.1127 13.575 21.8252 11.8875 21.8252 10.0313C21.8252 9.63755 21.5064 9.30005 21.0939 9.30005C19.5189 9.30005 18.0377 9.82505 16.8752 10.7063C17.8127 8.21255 17.2689 5.25005 15.2439 3.2063C14.9627 2.92505 14.5127 2.92505 14.2127 3.2063C12.8814 4.53755 12.1502 6.30005 12.1502 8.1938C12.1502 9.07505 12.3189 9.93755 12.6189 10.725C11.4377 9.8438 9.97519 9.3188 8.4002 9.3188C8.00644 9.3188 7.66895 9.63755 7.66895 10.05C7.66895 11.9063 8.38144 13.5938 9.5627 14.85C9.1877 14.7938 8.79395 14.7563 8.4002 14.7563C8.00644 14.7375 7.6877 15.075 7.6877 15.4688ZM14.7377 17.1C15.1314 17.1 15.5252 17.0625 15.9002 17.0063C15.4314 17.5125 15.0377 18.075 14.7377 18.6938C14.4377 18.075 14.0439 17.5125 13.5752 17.0063C13.9502 17.0625 14.3439 17.1 14.7377 17.1ZM15.5064 21.0188C15.8439 18.5438 17.8127 16.5938 20.2689 16.2563C19.9314 18.7125 17.9814 20.6813 15.5064 21.0188ZM20.2877 10.8188C19.9502 13.2938 17.9814 15.2438 15.5252 15.5813C15.8627 13.125 17.8127 11.175 20.2877 10.8188ZM14.7377 4.8188C16.2377 6.8063 16.2377 9.5813 14.7377 11.5688C14.0064 10.5938 13.6127 9.4313 13.6127 8.1938C13.6127 6.9563 14.0064 5.7938 14.7377 4.8188ZM13.9502 15.6C11.4939 15.2438 9.5252 13.2938 9.1877 10.8188C11.6627 11.175 13.6127 13.125 13.9502 15.6ZM13.9502 21.0188C11.4939 20.6813 9.5252 18.7125 9.1877 16.2375C11.6627 16.5938 13.6127 18.5438 13.9502 21.0188Z"   fill="#8F95B2" >
</path>
</svg>
