<svg xmlns="http://www.w3.org/2000/svg" xmlns:xlink="http://www.w3.org/1999/xlink" width="30" height="30" viewBox="0 0 30 30" fill="none">
<path d="M23.85 23.2875C24.075 22.7438 24.1875 22.1625 24.1875 21.5625C24.1875 20.9625 24.075 20.3813 23.85 19.8375C23.625 19.2938 23.2875 18.8063 22.875 18.375C22.5938 18.0938 22.2938 17.8688 21.9562 17.6813C21.9562 17.6813 21.9562 17.6625 21.975 17.6625C22.2 17.1188 22.3125 16.5375 22.3125 15.9375C22.3125 15.3375 22.2 14.7563 21.975 14.2125C21.75 13.6688 21.4125 13.1813 21 12.75C20.5875 12.3375 20.0812 12 19.5375 11.775C18.45 11.325 17.1938 11.325 16.0875 11.775C15.975 11.8125 15.8625 11.8688 15.7688 11.925C15.15 11.2125 14.8125 10.3125 14.8125 9.37505C14.8125 7.20005 16.575 5.43755 18.75 5.43755C19.0312 5.43755 19.2938 5.4938 19.5375 5.58755C19.7812 5.70005 20.0063 5.85005 20.2125 6.03755C20.3625 6.18755 20.4937 6.37505 20.5875 6.56255C20.4937 6.75005 20.3625 6.93755 20.2125 7.08755C20.025 7.27505 19.8 7.42505 19.5375 7.53755C19.0312 7.7438 18.4688 7.7438 17.9625 7.53755C17.5875 7.38755 17.1375 7.5563 16.9875 7.95005C16.8375 8.32505 17.0063 8.77505 17.4 8.92505C17.8312 9.11255 18.3 9.18755 18.7687 9.18755C19.2375 9.18755 19.7062 9.0938 20.1375 8.92505C20.5688 8.73755 20.9625 8.4938 21.3 8.1563C21.6375 7.8188 21.9 7.42505 22.0688 6.9938C22.1062 6.90005 22.125 6.8063 22.125 6.71255L22.125 6.4313C22.125 6.33755 22.1062 6.22505 22.0688 6.15005C21.8813 5.7188 21.6375 5.32505 21.3 4.98755C20.9625 4.65005 20.5875 4.38755 20.1375 4.2188C19.7062 4.0313 19.2375 3.9563 18.7687 3.9563C16.6313 3.9563 14.775 5.1938 13.8938 6.9938L13.7812 6.8813C13.4438 6.5438 13.0688 6.2813 12.6187 6.11255C11.7563 5.7563 10.7625 5.7563 9.88125 6.11255C9.45 6.30005 9.05625 6.5438 8.71875 6.8813C8.38125 7.2188 8.11875 7.61255 7.95 8.0438C7.78125 8.43755 7.6875 8.9063 7.6875 9.37505C7.6875 9.78755 8.025 10.125 8.4375 10.125C8.85 10.125 9.1875 9.78755 9.1875 9.37505C9.1875 9.0938 9.24375 8.8313 9.3375 8.58755C9.45 8.3438 9.6 8.1188 9.7875 7.91255C9.975 7.72505 10.2 7.57505 10.4625 7.46255C10.9688 7.2563 11.55 7.2563 12.0375 7.46255C12.2812 7.57505 12.5062 7.72505 12.7125 7.91255C12.9 8.10005 13.05 8.32505 13.1625 8.58755C13.275 8.8313 13.3125 9.11255 13.3125 9.37505C13.3125 10.3125 12.975 11.2313 12.3562 11.9438C12.2437 11.8875 12.1312 11.8313 12.0188 11.7938C10.9312 11.3438 9.675 11.3438 8.56875 11.7938C8.025 12.0188 7.5375 12.3563 7.10625 12.7688C6.69375 13.1813 6.35625 13.6875 6.13125 14.2313C5.90625 14.775 5.79375 15.3563 5.79375 15.9563C5.79375 16.5563 5.90625 17.1375 6.13125 17.6813C6.13125 17.6813 6.13125 17.7 6.15 17.7C5.8125 17.8875 5.5125 18.1313 5.25 18.3938C4.8375 18.8063 4.5 19.3125 4.275 19.8563C4.05 20.4 3.9375 20.9813 3.9375 21.5813C3.9375 22.1813 4.05 22.7625 4.275 23.3063C4.5 23.85 4.8375 24.3375 5.25 24.7688C5.6625 25.1813 6.16875 25.5188 6.7125 25.7438C7.03125 25.875 7.35 25.9688 7.6875 26.025L7.6875 27.2063C7.6875 27.6188 8.025 27.9563 8.4375 27.9563C8.85 27.9563 9.1875 27.6188 9.1875 27.2063L9.1875 26.025C9.525 25.9688 9.84375 25.875 10.1625 25.7438C10.5562 25.575 10.9312 25.3688 11.25 25.0875C11.5875 25.35 11.9437 25.575 12.3375 25.7438C12.8812 25.9688 13.4625 26.0813 14.0625 26.0813C14.2125 26.0813 14.3813 26.0813 14.5312 26.0625L15.2812 27.5438C15.4125 27.8063 15.675 27.9563 15.9563 27.9563C16.0688 27.9563 16.1813 27.9375 16.2938 27.8813C16.6688 27.6938 16.8188 27.2438 16.6313 26.8688L16.0125 25.6313C16.3312 25.4813 16.6313 25.2938 16.8937 25.0875C17.2313 25.35 17.5875 25.575 17.9813 25.7438C18.525 25.9688 19.1063 26.0813 19.7062 26.0813C19.9125 26.0813 20.1 26.0625 20.2875 26.0438L21.975 27.7313C22.125 27.8813 22.3125 27.9563 22.5 27.9563C22.6875 27.9563 22.875 27.8813 23.025 27.7313C23.325 27.4313 23.325 26.9625 23.025 26.6625L21.8625 25.5C22.2375 25.2938 22.5562 25.05 22.8563 24.75C23.2875 24.3188 23.625 23.8313 23.85 23.2875ZM16.6688 13.1625C17.025 13.0125 17.4188 12.9375 17.8125 12.9375C18.2062 12.9375 18.6 13.0125 18.9562 13.1625C19.3312 13.3125 19.65 13.5375 19.9313 13.8188C20.2125 14.1 20.4375 14.4188 20.5875 14.7938C20.7375 15.15 20.8125 15.5438 20.8125 15.9375C20.8125 16.3313 20.7375 16.725 20.5875 17.0813C20.5125 17.2688 20.4187 17.4375 20.3062 17.6063C20.1938 17.775 20.0812 17.925 19.9313 18.0563C19.65 18.3375 19.3312 18.5625 18.9562 18.7125C18.525 18.9 18.0375 18.9563 17.5688 18.9188C17.5125 18.9188 17.4562 18.9 17.3813 18.9C17.2687 18.8813 17.1375 18.8625 17.025 18.825L16.9875 18.825L16.65 18.7125C16.5563 18.675 16.4625 18.6375 16.3875 18.5813C16.125 18.45 15.9 18.2625 15.675 18.0563C15.6188 18 15.5813 17.9438 15.525 17.8875C15.4125 17.7563 15.3188 17.625 15.225 17.475C15.15 17.3625 15.0938 17.2313 15.0375 17.1C14.8875 16.7438 14.8125 16.35 14.8125 15.9563C14.8125 15.5625 14.8875 15.1688 15.0375 14.8125C15.1875 14.4563 15.4125 14.1188 15.6938 13.8375C15.975 13.5375 16.2938 13.3125 16.6688 13.1625ZM7.5375 14.7938C7.6875 14.4375 7.9125 14.1 8.19375 13.8188C8.475 13.5375 8.79375 13.3125 9.16875 13.1625C9.525 13.0125 9.91875 12.9375 10.3125 12.9375C10.7063 12.9375 11.1 13.0125 11.4563 13.1625C11.8313 13.3125 12.15 13.5375 12.4312 13.8188C12.7125 14.1 12.9375 14.4188 13.0875 14.7938C13.2375 15.15 13.3125 15.5438 13.3125 15.9375C13.3125 16.3313 13.2375 16.725 13.0875 17.0813C13.0312 17.2125 12.975 17.3438 12.9 17.4563L12.9 17.475C12.825 17.5875 12.7688 17.6813 12.6937 17.7938C12.675 17.8313 12.6375 17.8688 12.6187 17.8875C12.5625 17.9438 12.525 18 12.4688 18.0563C12.1875 18.3375 11.8687 18.5625 11.4937 18.7125L11.1562 18.825L11.1375 18.825C11.025 18.8625 10.9125 18.8813 10.7812 18.9C10.725 18.9 10.65 18.9188 10.5938 18.9188C10.1438 18.9563 9.675 18.8813 9.24375 18.7125C9.225 18.7125 9.20625 18.6938 9.20625 18.6938C8.85 18.5438 8.5125 18.3188 8.23125 18.0375C8.1 17.9063 7.96875 17.7563 7.85625 17.5875C7.74375 17.4188 7.65 17.25 7.575 17.0625C7.425 16.7063 7.35 16.3125 7.35 15.9188C7.35 15.525 7.3875 15.15 7.5375 14.7938ZM9.58125 24.3375C8.85 24.6375 8.025 24.6375 7.29375 24.3375C6.9375 24.1875 6.6 23.9625 6.31875 23.6813C6.0375 23.4 5.8125 23.0813 5.6625 22.7063C5.5125 22.35 5.4375 21.9563 5.4375 21.5625C5.4375 21.1688 5.5125 20.775 5.6625 20.4188C5.8125 20.0625 6.0375 19.725 6.31875 19.4438C6.50625 19.2563 6.73125 19.0875 6.975 18.9563L7.14375 19.125C7.55625 19.5375 8.0625 19.875 8.60625 20.1C8.68125 20.1375 8.775 20.1563 8.85 20.1938C8.86875 20.1938 8.90625 20.2125 8.925 20.2125C8.98125 20.2313 9.05625 20.25 9.1125 20.2688C9.13125 20.2688 9.16875 20.2875 9.1875 20.2875C9.2625 20.3063 9.35625 20.325 9.43125 20.3438L9.45 20.3438C9.54375 20.3625 9.61875 20.3813 9.7125 20.3813L9.73125 20.3813L9.73125 20.4C9.69375 20.5688 9.65625 20.7375 9.61875 20.925L9.61875 21C9.61875 21.075 9.6 21.1313 9.6 21.2063L9.6 21.5438C9.6 21.6938 9.6 21.8438 9.61875 21.9938C9.65625 22.425 9.76875 22.8563 9.9375 23.2688C9.99375 23.4 10.05 23.5125 10.1063 23.625C10.1438 23.7 10.1812 23.7563 10.2188 23.8313C10.2375 23.8688 10.2563 23.9063 10.275 23.925C10.05 24.1125 9.825 24.2438 9.58125 24.3375ZM12.9187 24.3375C12.5625 24.1875 12.225 23.9625 11.9437 23.6813C11.9062 23.6438 11.8687 23.5875 11.8125 23.55C11.7 23.4188 11.6063 23.3063 11.5312 23.1563C11.5125 23.1375 11.5125 23.1188 11.4937 23.1C11.4563 23.0438 11.4375 23.0063 11.4 22.95C11.3625 22.875 11.325 22.8 11.2875 22.7063C11.1375 22.35 11.0625 21.9563 11.0625 21.5625C11.0625 21.1688 11.1375 20.775 11.2875 20.4188C11.3062 20.3813 11.325 20.3625 11.325 20.325C11.5688 20.2688 11.7938 20.1938 12.0188 20.1C12.5625 19.875 13.05 19.5375 13.4812 19.125C13.575 19.0313 13.65 18.9375 13.7437 18.8438L13.9125 18.6188C13.9312 18.6 13.9312 18.5813 13.95 18.5625L14.1562 18.5625C14.175 18.5813 14.175 18.6 14.1938 18.6188L14.3625 18.8438C14.4375 18.9375 14.5312 19.0313 14.625 19.125C14.7375 19.2375 14.8313 19.3313 14.9625 19.425C15.2438 19.65 15.5437 19.8375 15.8625 19.9875C15.9375 20.025 16.0125 20.0625 16.1063 20.1C16.3312 20.1938 16.575 20.2688 16.8 20.325C16.8188 20.3625 16.8375 20.3813 16.8375 20.4188C16.9875 20.775 17.0625 21.1688 17.0625 21.5625C17.0625 21.6563 17.0625 21.7688 17.0438 21.8625C17.0063 22.1625 16.95 22.4438 16.8375 22.7063L16.8375 22.725C16.8 22.8 16.7812 22.875 16.7438 22.9313C16.725 22.9875 16.6875 23.025 16.65 23.0813C16.6313 23.1 16.6313 23.1188 16.6125 23.1375L16.3312 23.5313C16.2938 23.5688 16.2563 23.625 16.2 23.6625C15.9187 23.9438 15.6 24.1688 15.225 24.3188C14.4937 24.6375 13.65 24.6375 12.9187 24.3375ZM22.4625 22.7063C22.3125 23.0625 22.0875 23.4 21.8062 23.6813C21.525 23.9625 21.2062 24.1875 20.8312 24.3375C20.1 24.6375 19.275 24.6375 18.5438 24.3375C18.3 24.2438 18.075 24.1125 17.8875 23.9625C17.9062 23.925 17.925 23.8875 17.9438 23.8688C17.9813 23.7938 18.0187 23.7375 18.0563 23.6625C18.1125 23.55 18.1688 23.4188 18.225 23.3063C18.45 22.7625 18.5625 22.1813 18.5625 21.5813L18.5625 21.3188L18.5625 21.2438C18.5625 21.1875 18.5438 21.1125 18.5438 21.0563C18.5438 21.0375 18.5438 21 18.525 20.9813C18.5063 20.8125 18.4688 20.625 18.4313 20.4563L18.4313 20.4375L18.45 20.4375C18.5438 20.4188 18.6188 20.4188 18.7125 20.4L18.7313 20.4C18.8063 20.3813 18.8813 20.3625 18.975 20.3438C18.9938 20.3438 19.0312 20.325 19.05 20.325C19.1063 20.3063 19.1813 20.2875 19.2375 20.2688C19.2563 20.2688 19.2938 20.25 19.3125 20.25C19.3875 20.2125 19.4813 20.1938 19.5563 20.1563C20.1 19.9313 20.5875 19.5938 21.0187 19.1813L21.1875 19.0125C21.4312 19.1438 21.6375 19.3125 21.8438 19.5C22.125 19.7813 22.35 20.1 22.5 20.475C22.65 20.8313 22.725 21.225 22.725 21.6188C22.6875 21.9563 22.6125 22.35 22.4625 22.7063Z"   fill="#8F95B2" >
</path>
</svg>
