<svg xmlns="http://www.w3.org/2000/svg" xmlns:xlink="http://www.w3.org/1999/xlink" width="56" height="56" viewBox="0 0 56 56" fill="none">
<rect  x="0" y="0" width="55.999977111816406" height="56" rx="12"    fill="#F7F7F7" >
</rect>
<path d="M28 19.75C23.4437 19.75 19.75 23.4437 19.75 28C19.75 32.5564 23.4437 36.25 28 36.25C32.5564 36.25 36.25 32.5564 36.25 28C36.25 23.4437 32.5564 19.75 28 19.75ZM18.25 28C18.25 22.6152 22.6152 18.25 28 18.25C33.3848 18.25 37.75 22.6152 37.75 28C37.75 33.3848 33.3848 37.75 28 37.75C22.6152 37.75 18.25 33.3848 18.25 28Z" fill-rule="evenodd"  fill="#000000" >
</path>
<path d="M28 27.25C28.4142 27.25 28.75 27.5858 28.75 28L28.75 32C28.75 32.4142 28.4142 32.75 28 32.75C27.5858 32.75 27.25 32.4142 27.25 32L27.25 28C27.25 27.5858 27.5858 27.25 28 27.25Z" fill-rule="evenodd"  fill="#6C5DD3" >
</path>
<path d="M29 25C29 25.5523 28.5523 26 28 26C27.4477 26 27 25.5523 27 25C27 24.4477 27.4477 24 28 24C28.5523 24 29 24.4477 29 25Z"   fill="#6C5DD3" >
</path>
</svg>
