<svg xmlns="http://www.w3.org/2000/svg" xmlns:xlink="http://www.w3.org/1999/xlink" width="56" height="56" viewBox="0 0 56 56" fill="none">
<rect  x="0" y="0" width="55.999977111816406" height="56" rx="12"    fill="#F7F7F7" >
</rect>
<path d="M26.1372 18C25.4988 18 24.963 18.481 24.8944 19.1156L24.6408 21.4619C24.4272 21.5718 24.2198 21.6919 24.0191 21.8214L21.8595 20.8676C21.2756 20.6097 20.5911 20.8332 20.2719 21.386L18.4083 24.614C18.0891 25.1668 18.2378 25.8713 18.7531 26.248L20.6594 27.6417C20.6537 27.7605 20.6508 27.8799 20.6508 28C20.6508 28.1201 20.6537 28.2395 20.6594 28.3583L18.7531 29.752C18.2378 30.1287 18.0891 30.8332 18.4083 31.386L20.2719 34.614C20.5911 35.1668 21.2756 35.3903 21.8595 35.1324L24.0191 34.1786C24.2198 34.3081 24.4272 34.4282 24.6408 34.5381L24.8944 36.8844C24.963 37.519 25.4988 38 26.1372 38L29.8644 38C30.5028 38 31.0386 37.519 31.1072 36.8844L31.361 34.5371C31.574 34.4274 31.7809 34.3076 31.9811 34.1783L34.1412 35.1324C34.7252 35.3903 35.4096 35.1668 35.7288 34.614L37.5924 31.386C37.9116 30.8332 37.763 30.1287 37.2476 29.752L35.3405 28.3577C35.3462 28.2391 35.3491 28.1199 35.3491 28C35.3491 27.8801 35.3462 27.7609 35.3405 27.6423L37.2476 26.248C37.763 25.8713 37.9116 25.1668 37.5924 24.614L35.7288 21.386C35.4096 20.8332 34.7252 20.6097 34.1412 20.8676L31.9811 21.8217C31.7809 21.6924 31.574 21.5726 31.361 21.4629L31.1072 19.1157C31.0386 18.481 30.5028 18 29.8644 18L26.1372 18ZM26.0874 22.0388L26.3619 19.5L29.6403 19.5L29.9148 22.0396C29.9437 22.3062 30.1126 22.5371 30.3579 22.6452C30.7485 22.8175 31.117 23.0314 31.4576 23.2815C31.674 23.4404 31.9588 23.4714 32.2044 23.363L34.5423 22.3304L36.1815 25.1696L34.1183 26.678C33.902 26.8361 33.7865 27.0976 33.8152 27.3639C33.8378 27.5726 33.8494 27.7848 33.8494 28C33.8494 28.2152 33.8378 28.4274 33.8152 28.636C33.7865 28.9024 33.902 29.1639 34.1183 29.322L36.1815 30.8304L34.5423 33.6696L32.2044 32.637C31.9588 32.5286 31.674 32.5596 31.4576 32.7185C31.117 32.9686 30.7485 33.1825 30.3579 33.3548C30.1126 33.4629 29.9437 33.6938 29.9148 33.9604L29.6403 36.5L26.3619 36.5L26.0874 33.9612C26.0586 33.6946 25.8896 33.4636 25.6442 33.3555C25.253 33.1831 24.8841 32.969 24.5431 32.7187C24.3267 32.5599 24.0419 32.5288 23.7963 32.6373L21.459 33.6696L19.8198 30.8304L21.8822 29.3226C22.0985 29.1645 22.214 28.903 22.1852 28.6366C22.1627 28.4277 22.151 28.2154 22.151 28C22.151 27.7846 22.1627 27.5723 22.1852 27.3634C22.214 27.097 22.0985 26.8355 21.8822 26.6774L19.8198 25.1696L21.459 22.3304L23.7963 23.3627C24.0419 23.4712 24.3267 23.4401 24.5431 23.2813C24.8841 23.031 25.253 22.8169 25.6442 22.6445C25.8896 22.5364 26.0586 22.3054 26.0874 22.0388Z" fill-rule="evenodd"  fill="#000000" >
</path>
<path d="M28 25.75C26.7574 25.75 25.75 26.7574 25.75 28C25.75 29.2426 26.7574 30.25 28 30.25C29.2426 30.25 30.25 29.2426 30.25 28C30.25 26.7574 29.2426 25.75 28 25.75ZM24.25 28C24.25 25.9289 25.9289 24.25 28 24.25C30.0711 24.25 31.75 25.9289 31.75 28C31.75 30.0711 30.0711 31.75 28 31.75C25.9289 31.75 24.25 30.0711 24.25 28Z" fill-rule="evenodd"  fill="#6C5DD3" >
</path>
</svg>
