<svg xmlns="http://www.w3.org/2000/svg" xmlns:xlink="http://www.w3.org/1999/xlink" width="32" height="32" viewBox="0 0 32 32" fill="none">
<rect  x="0" y="0" width="32" height="31.999984741210938" rx="10"    fill="#F7F7F7" >
</rect>
<path d="M14.846 7.82196C15.273 6.79535 16.7273 6.79535 17.1543 7.82196L19.1618 12.6485L24.3724 13.0662C25.4807 13.155 25.9301 14.5382 25.0857 15.2615L21.1157 18.6622L22.3286 23.7468C22.5866 24.8284 21.41 25.6832 20.4612 25.1036L16.0002 22.3789L11.5392 25.1036C10.5903 25.6832 9.41371 24.8284 9.6717 23.7468L10.8846 18.6622L6.91465 15.2615C6.07023 14.5382 6.51963 13.155 7.62795 13.0662L12.8386 12.6485L14.846 7.82196ZM16.0002 8.95299L14.1649 13.3655C13.9849 13.7983 13.5779 14.094 13.1106 14.1315L8.34697 14.5134L11.9764 17.6223C12.3324 17.9273 12.4878 18.4057 12.3791 18.8617L11.2702 23.5102L15.3486 21.0192C15.7486 20.7748 16.2517 20.7748 16.6517 21.0192L20.7301 23.5102L19.6212 18.8617C19.5125 18.4057 19.6679 17.9273 20.0239 17.6223L23.6533 14.5134L18.8897 14.1315C18.4224 14.094 18.0154 13.7983 17.8354 13.3655L16.0002 8.95299Z" fill-rule="evenodd"  fill="#6C5DD3" >
</path>
</svg>
