<svg xmlns="http://www.w3.org/2000/svg" xmlns:xlink="http://www.w3.org/1999/xlink" width="56" height="56" viewBox="0 0 56 56" fill="none">
<rect  x="0" y="0" width="55.999977111816406" height="56" rx="12"    fill="#F7F7F7" >
</rect>
<path   fill-rule="evenodd"  fill="#000000"  d="M28.5 19C33.7459 19 38 23.2541 38 28.5C38 33.7459 33.7459 38 28.5 38C23.2541 38 19 33.7459 19 28.5C19 23.2541 23.2541 19 28.5 19ZM28.5 20C33.1937 20 37 23.8063 37 28.5C37 33.1937 33.1937 37 28.5 37C23.8063 37 20 33.1937 20 28.5C20 23.8063 23.8063 20 28.5 20ZM24.7072 29.0004L33.4995 29.0004C33.7756 29.0004 34 28.7763 34 28.5C34 28.2237 33.7756 27.9996 33.4995 27.9996L24.7072 27.9996L27.8532 24.8532C28.049 24.6579 28.049 24.342 27.8532 24.1467C27.6585 23.9514 27.3417 23.9514 27.1459 24.1467L23.1463 28.1463C22.9516 28.3416 22.9516 28.6584 23.1463 28.8537L27.1459 32.8533C27.3417 33.0486 27.6585 33.0486 27.8532 32.8533C28.049 32.658 28.049 32.3421 27.8532 32.1468L24.7072 29.0004Z">
</path>
</svg>
