<svg xmlns="http://www.w3.org/2000/svg" xmlns:xlink="http://www.w3.org/1999/xlink" width="30" height="30" viewBox="0 0 30 30" fill="none">
<path d="M25.9125 3.075L20.2875 5.8875C20.1375 5.9625 20.025 6.075 19.95 6.225L19.2188 7.6875L16.65 7.6875C16.275 4.51875 13.575 2.0625 10.3125 2.0625C6.80625 2.0625 3.9375 4.93125 3.9375 8.4375C3.9375 11.7 6.39375 14.4 9.5625 14.775L9.5625 15.9375C9.5625 16.1625 9.65625 16.3687 9.825 16.5L10.3125 16.9125C10.6688 17.2687 10.95 17.7 11.1562 18.1687C11.3625 18.6375 11.4563 19.1625 11.4563 19.6687L11.4563 25.2937C11.4563 25.7062 11.7938 26.0437 12.2063 26.0437L19.7063 26.0437C20.1188 26.0437 20.4563 25.7062 20.4563 25.2937L20.4563 19.6687C20.4563 19.1437 20.55 18.6375 20.7563 18.1687C20.9438 17.7 21.225 17.2687 21.6 16.9125L22.0875 16.5C22.2563 16.35 22.35 16.1437 22.35 15.9375L22.35 8.4375C22.35 8.23125 22.275 8.04375 22.125 7.9125C21.975 7.7625 21.7875 7.6875 21.6 7.6875L20.9438 7.6875L21.225 7.125L26.625 4.425C27 4.2375 27.15 3.7875 26.9625 3.4125C26.7375 3.0375 26.2875 2.8875 25.9125 3.075ZM11.0625 11.4375L11.0625 9.1875L18.4688 9.1875L17.3438 11.4375L11.0625 11.4375ZM7.44375 12.375L8.04375 11.775C8.34375 11.475 8.34375 11.0062 8.04375 10.7062C7.74375 10.4062 7.275 10.4062 6.975 10.7062L6.375 11.3062C5.925 10.6875 5.625 9.975 5.49375 9.1875L6.5625 9.1875C6.975 9.1875 7.3125 8.85 7.3125 8.4375C7.3125 8.025 6.975 7.6875 6.5625 7.6875L5.49375 7.6875C5.60625 6.9 5.925 6.1875 6.375 5.56875L6.975 6.16875C7.125 6.3 7.3125 6.375 7.5 6.375C7.6875 6.375 7.875 6.3 8.025 6.15C8.325 5.85 8.325 5.38125 8.025 5.08125L7.44375 4.5C8.0625 4.05 8.775 3.75 9.5625 3.61875L9.5625 4.6875C9.5625 5.1 9.9 5.4375 10.3125 5.4375C10.725 5.4375 11.0625 5.1 11.0625 4.6875L11.0625 3.61875C11.85 3.73125 12.5625 4.05 13.1813 4.5L12.5813 5.1C12.2812 5.4 12.2812 5.86875 12.5813 6.16875C12.75 6.3 12.9375 6.375 13.125 6.375C13.3125 6.375 13.5 6.3 13.65 6.15L14.25 5.55C14.7 6.1875 15 6.9 15.1313 7.6875L10.3125 7.6875C9.9 7.6875 9.5625 8.025 9.5625 8.4375L9.5625 13.2562C8.775 13.125 8.0625 12.825 7.44375 12.375ZM20.5688 15.8062L20.5312 15.8438C20.025 16.35 19.6313 16.95 19.35 17.6063C19.0688 18.2625 18.9375 18.975 18.9375 19.6875L18.9375 24.5625L12.9375 24.5625L12.9375 19.6875C12.9375 18.975 12.8063 18.2625 12.525 17.6063C12.2438 16.95 11.85 16.35 11.3438 15.8438L11.3063 15.8062L11.0625 15.6L11.0625 12.9375L20.8125 12.9375L20.8125 15.6L20.5688 15.8062ZM20.8125 9.1875L20.8125 11.4375L19.0312 11.4375L20.1562 9.1875L20.8125 9.1875Z"   fill="#8F95B2" >
</path>
</svg>
