<svg xmlns="http://www.w3.org/2000/svg" xmlns:xlink="http://www.w3.org/1999/xlink" width="30" height="30" viewBox="0 0 30 30" fill="none">
<path d="M19.5 7.6875C15.1875 7.6875 11.5125 10.6875 10.5562 14.775L6.50625 10.725C6.20625 10.425 5.7375 10.425 5.4375 10.725C3.75 12.4125 2.8125 14.6812 2.8125 17.0812C2.8125 19.4813 3.75 21.7313 5.4375 23.4375C7.14375 25.1437 9.39375 26.0625 11.7937 26.0625C13.1438 26.0625 14.4375 25.7625 15.6375 25.2C16.8563 25.7625 18.15 26.0625 19.5 26.0625C24.5625 26.0625 28.6875 21.9375 28.6875 16.875C28.6875 11.8125 24.5625 7.6875 19.5 7.6875ZM11.7937 24.5625C9.7875 24.5625 7.9125 23.775 6.50625 22.3687C5.1 20.9625 4.3125 19.0688 4.3125 17.0812C4.3125 15.3375 4.9125 13.6687 6 12.3375L10.5562 16.8937L16.5375 22.875L16.2563 23.1L16.2188 23.1375C16.125 23.1938 16.05 23.2687 15.9563 23.325C15.9375 23.3438 15.9187 23.3438 15.9 23.3625L15.6187 23.5312C15.6 23.5312 15.6 23.55 15.5813 23.55C15.4688 23.6063 15.375 23.6625 15.2625 23.7188C14.2125 24.2625 13.0312 24.5625 11.7937 24.5625ZM19.5 24.5625C18.7313 24.5625 17.9625 24.45 17.25 24.225C17.2687 24.2062 17.2875 24.1875 17.3063 24.1875L17.6437 23.9062C17.6813 23.8687 17.7188 23.85 17.7563 23.8125C17.8875 23.7 18.0187 23.5688 18.15 23.4375C18.2438 23.3438 18.3188 23.2125 18.3563 23.0625L18.3563 23.0438L18.3563 22.95L18.3563 22.8937C18.3563 22.6875 18.2812 22.5 18.1313 22.3687L11.85 16.0688C12.2625 12.1875 15.5625 9.1875 19.5 9.1875C23.7375 9.1875 27.1875 12.6375 27.1875 16.875C27.1875 21.1125 23.7375 24.5625 19.5 24.5625ZM21.0938 13.4062C21.2625 13.575 21.375 13.8188 21.375 14.0625C21.375 14.3062 21.2812 14.55 21.0938 14.7188C20.925 14.8875 20.6812 15 20.4375 15C20.1937 15 19.95 14.9062 19.7812 14.7188C19.6125 14.55 19.5 14.3062 19.5 14.0625C19.5 13.8188 19.5938 13.575 19.7812 13.4062C19.95 13.2375 20.1937 13.125 20.4375 13.125C20.6812 13.125 20.925 13.2188 21.0938 13.4062ZM21.0938 17.1562C21.2625 17.325 21.375 17.5688 21.375 17.8125C21.375 18.0562 21.2812 18.3 21.0938 18.4688C20.925 18.6375 20.6812 18.75 20.4375 18.75C20.1937 18.75 19.95 18.6562 19.7812 18.4688C19.6125 18.3 19.5 18.0562 19.5 17.8125C19.5 17.5688 19.5938 17.325 19.7812 17.1562C19.95 16.9875 20.1937 16.875 20.4375 16.875C20.6812 16.875 20.925 16.9688 21.0938 17.1562ZM24.8625 15.2812C25.0312 15.45 25.1437 15.6938 25.1437 15.9375C25.1437 16.1812 25.05 16.425 24.8625 16.5938C24.6938 16.7625 24.45 16.875 24.2062 16.875C23.9625 16.875 23.7188 16.7812 23.55 16.5938C23.3813 16.425 23.2687 16.1812 23.2687 15.9375C23.2687 15.6938 23.3625 15.45 23.55 15.2812C23.7188 15.1125 23.9625 15 24.2062 15C24.4312 15 24.675 15.0938 24.8625 15.2812Z"   fill="#8F95B2" >
</path>
</svg>
