<svg xmlns="http://www.w3.org/2000/svg" xmlns:xlink="http://www.w3.org/1999/xlink" width="30" height="30" viewBox="0 0 30 30" fill="none">
<path d="M8.5498 23.7C9.4123 24.45 10.4061 25.05 11.5311 25.4625C12.6373 25.875 13.8186 26.0813 15.0186 26.0813C16.2186 26.0813 17.3998 25.875 18.5061 25.4625C19.6123 25.05 20.6248 24.4688 21.4873 23.7C22.3498 22.9313 23.0248 22.05 23.4936 21.0375C23.9623 20.025 24.2061 18.975 24.2061 17.8688C24.2061 16.7625 23.9623 15.7125 23.4936 14.7C23.0248 13.7063 22.3498 12.8063 21.4873 12.0375C21.1311 11.7375 20.3811 11.1375 19.3311 10.8C19.4998 10.6125 19.5748 10.3688 19.4998 10.1063C19.4061 9.7125 18.9936 9.46875 18.5811 9.5625L15.8061 10.2563C15.8998 9.3375 16.1248 8.4375 16.4811 7.575C16.9686 6.4125 17.6623 5.3625 18.5623 4.48125C18.8623 4.18125 18.8623 3.7125 18.5623 3.4125C18.2623 3.1125 17.7936 3.1125 17.4936 3.4125C16.4623 4.44375 15.6561 5.6625 15.0936 6.99375C14.7186 7.89375 14.4748 8.83125 14.3436 9.80625L11.6998 7.8375C11.3623 7.59375 10.8936 7.65 10.6498 7.9875C10.4061 8.325 10.4623 8.79375 10.7998 9.0375L12.8811 10.5938C12.6936 10.575 12.5061 10.5563 12.3186 10.5563C10.4436 10.5563 9.0748 11.6063 8.5498 12.0375C7.6873 12.8063 7.0123 13.6875 6.54355 14.7C6.0748 15.7125 5.83105 16.7625 5.83105 17.8688C5.83105 18.975 6.0748 20.025 6.54355 21.0375C7.0123 22.0313 7.6873 22.9313 8.5498 23.7ZM7.89355 15.3375C8.26855 14.5313 8.83105 13.8 9.54355 13.1625C9.91855 12.825 10.9498 12.0563 12.3186 12.0563C13.0873 12.0563 13.8561 12.3 14.5873 12.8063C14.8311 12.975 15.1686 12.975 15.4123 12.8063C16.1623 12.3 16.9311 12.0563 17.6998 12.0563C19.1061 12.0563 20.1748 12.9 20.4748 13.1625C21.1873 13.8 21.7498 14.5125 22.1248 15.3375C22.4998 16.1438 22.6873 16.9875 22.6873 17.8688C22.6873 18.75 22.4998 19.5938 22.1248 20.4C21.7498 21.2063 21.1873 21.9375 20.4748 22.575C19.7623 23.2125 18.9186 23.7 17.9811 24.0563C17.0436 24.3938 16.0498 24.5813 15.0186 24.5813C13.9873 24.5813 12.9936 24.4125 12.0561 24.0563C11.1186 23.7188 10.2748 23.2125 9.5623 22.575C8.8498 21.9563 8.30606 21.225 7.9123 20.4C7.5373 19.5938 7.3498 18.75 7.3498 17.8688C7.33105 17.0063 7.51855 16.1438 7.89355 15.3375Z"   fill="#8F95B2" >
</path>
</svg>
